<svg width="384" height="300" viewBox="0 0 384 300" fill="none" xmlns="http://www.w3.org/2000/svg">
<g clip-path="url(#clip0_48_42)">
<path d="M384 0H0V300H384V0Z" fill="#FA2A21"/>
<path d="M138.914 179.608H145.024V182H135.95V163.93H138.914V179.608ZM155.745 182.182C154.063 182.182 152.512 181.792 151.091 181.012C149.687 180.215 148.569 179.114 147.737 177.71C146.922 176.289 146.515 174.694 146.515 172.926C146.515 171.158 146.922 169.572 147.737 168.168C148.569 166.764 149.687 165.672 151.091 164.892C152.512 164.095 154.063 163.696 155.745 163.696C157.443 163.696 158.995 164.095 160.399 164.892C161.82 165.672 162.938 166.764 163.753 168.168C164.567 169.572 164.975 171.158 164.975 172.926C164.975 174.694 164.567 176.289 163.753 177.71C162.938 179.114 161.82 180.215 160.399 181.012C158.995 181.792 157.443 182.182 155.745 182.182ZM155.745 179.608C156.941 179.608 158.007 179.339 158.943 178.802C159.879 178.247 160.607 177.467 161.127 176.462C161.664 175.439 161.933 174.261 161.933 172.926C161.933 171.591 161.664 170.421 161.127 169.416C160.607 168.411 159.879 167.639 158.943 167.102C158.007 166.565 156.941 166.296 155.745 166.296C154.549 166.296 153.483 166.565 152.547 167.102C151.611 167.639 150.874 168.411 150.337 169.416C149.817 170.421 149.557 171.591 149.557 172.926C149.557 174.261 149.817 175.439 150.337 176.462C150.874 177.467 151.611 178.247 152.547 178.802C153.483 179.339 154.549 179.608 155.745 179.608ZM178.785 178.308H171.219L169.919 182H166.825L173.299 163.904H176.731L183.205 182H180.085L178.785 178.308ZM177.953 175.89L175.015 167.492L172.051 175.89H177.953ZM191.922 163.93C193.846 163.93 195.528 164.303 196.966 165.048C198.422 165.776 199.54 166.833 200.32 168.22C201.118 169.589 201.516 171.193 201.516 173.03C201.516 174.867 201.118 176.462 200.32 177.814C199.54 179.166 198.422 180.206 196.966 180.934C195.528 181.645 193.846 182 191.922 182H186.02V163.93H191.922ZM191.922 179.582C194.037 179.582 195.658 179.01 196.784 177.866C197.911 176.722 198.474 175.11 198.474 173.03C198.474 170.933 197.911 169.295 196.784 168.116C195.658 166.937 194.037 166.348 191.922 166.348H188.984V179.582H191.922ZM207.418 163.93V182H204.454V163.93H207.418ZM226.155 182H223.191L214.273 168.506V182H211.309V163.904H214.273L223.191 177.372V163.904H226.155V182ZM243.126 169.13C242.658 168.229 242.008 167.553 241.176 167.102C240.344 166.634 239.382 166.4 238.29 166.4C237.094 166.4 236.028 166.669 235.092 167.206C234.156 167.743 233.419 168.506 232.882 169.494C232.362 170.482 232.102 171.626 232.102 172.926C232.102 174.226 232.362 175.379 232.882 176.384C233.419 177.372 234.156 178.135 235.092 178.672C236.028 179.209 237.094 179.478 238.29 179.478C239.902 179.478 241.21 179.027 242.216 178.126C243.221 177.225 243.836 176.003 244.062 174.46H237.276V172.094H247.234V174.408C247.043 175.812 246.54 177.103 245.726 178.282C244.928 179.461 243.88 180.405 242.58 181.116C241.297 181.809 239.867 182.156 238.29 182.156C236.591 182.156 235.04 181.766 233.636 180.986C232.232 180.189 231.114 179.088 230.282 177.684C229.467 176.28 229.06 174.694 229.06 172.926C229.06 171.158 229.467 169.572 230.282 168.168C231.114 166.764 232.232 165.672 233.636 164.892C235.057 164.095 236.608 163.696 238.29 163.696C240.214 163.696 241.921 164.173 243.412 165.126C244.92 166.062 246.012 167.397 246.688 169.13H243.126Z" fill="white"/>
<path d="M218.199 132.02C217.649 131.917 217.13 132.26 217.019 132.801C215.903 138.303 211.574 142 206.249 142C201.221 142 196.803 138.7 195.301 134H200V132H192V140H194V136.152C196.169 140.833 200.915 144 206.249 144C212.553 144 217.669 139.659 218.98 133.199C219.09 132.657 218.74 132.13 218.199 132.02Z" fill="white"/>
<path d="M218 125.308C215.75 120.855 211.296 118 206.249 118C200.14 118 194.708 121.997 193.04 127.721C192.886 128.251 193.19 128.806 193.721 128.96C194.25 129.114 194.806 128.81 194.96 128.279C196.358 123.482 201.105 120 206.249 120C210.814 120 214.811 122.766 216.579 127H212V129H220V121H218V125.308Z" fill="white"/>
<path d="M220 90H164C163.448 90 163 90.447 163 91V135C163 135.553 163.448 136 164 136H190.811C190.291 134.425 190 132.747 190 131C190 126.186 192.147 121.872 195.523 118.936L186.974 110.388L170.661 124.751C170.471 124.918 170.235 125 170 125C169.723 125 169.447 124.886 169.249 124.661C168.884 124.246 168.924 123.614 169.339 123.249L186.356 108.267C186.752 107.919 187.35 107.938 187.724 108.311L192.467 113.054L202.261 102.327C202.44 102.131 202.69 102.014 202.955 102.002C203.219 101.996 203.479 102.085 203.675 102.264L215.675 113.264C216.082 113.637 216.11 114.27 215.737 114.677C215.364 115.083 214.731 115.112 214.324 114.739L203.063 104.414L193.882 114.468L197.116 117.702C199.66 115.998 202.715 115 206 115C210.783 115 215.071 116.66 218 120H221V91C221 90.447 220.552 90 220 90ZM179 107.138C175.929 107.138 173.431 104.64 173.431 101.57C173.431 98.498 175.929 96 179 96C182.071 96 184.569 98.498 184.569 101.569C184.569 104.64 182.071 107.138 179 107.138Z" fill="white"/>
</g>
<defs>
<clipPath id="clip0_48_42">
<rect width="384" height="300" fill="white"/>
</clipPath>
</defs>
</svg>
