<svg width="519" height="106" viewBox="0 0 519 106" fill="none" xmlns="http://www.w3.org/2000/svg">
<g opacity="0.01">
<path d="M285.187 103.003H284.927C282.77 102.941 280.711 102.086 279.144 100.601C277.577 99.1171 276.612 97.1074 276.433 94.9564L274.913 76.2361C274.124 77.4846 273.032 78.5131 271.738 79.2258C270.445 79.9385 268.992 80.3123 267.515 80.3124V80.3124C265.459 80.31 263.47 79.5874 261.892 78.2701C260.315 76.9528 259.248 75.1243 258.879 73.1024L256.806 61.6746H229.556L226.764 71.6886C226.279 73.3996 225.289 74.924 223.922 76.0615C222.555 77.199 220.877 77.8965 219.106 78.0622L216.597 95.4394C216.294 97.5754 215.215 99.5251 213.566 100.916C211.917 102.307 209.814 103.042 207.658 102.981C205.501 102.92 203.443 102.067 201.875 100.584C200.308 99.102 199.342 97.0943 199.161 94.9446L197.676 76.2361C196.887 77.4846 195.795 78.5131 194.501 79.2258C193.207 79.9385 191.755 80.3123 190.278 80.3124V80.3124C188.222 80.3123 186.231 79.5905 184.653 78.2728C183.075 76.9552 182.009 75.1253 181.642 73.1024L179.557 61.6746H152.295L149.491 71.6886C149.01 73.4012 148.02 74.9273 146.653 76.0653C145.285 77.2034 143.605 77.8997 141.833 78.0622L139.407 95.4276C139.104 97.5636 138.025 99.5133 136.376 100.904C134.727 102.296 132.624 103.031 130.467 102.97C128.311 102.908 126.253 102.055 124.685 100.573C123.118 99.0903 122.152 97.0825 121.97 94.9328L120.451 76.2361C119.661 77.4846 118.569 78.5131 117.276 79.2258C115.982 79.9385 114.529 80.3123 113.052 80.3124V80.3124C110.997 80.31 109.007 79.5874 107.43 78.2701C105.852 76.9528 104.786 75.1243 104.417 73.1024L102.319 61.6864H75.0578L72.2657 71.7004C71.7828 73.4122 70.7926 74.9374 69.4256 76.0752C68.0586 77.213 66.3789 77.9099 64.608 78.074L62.181 95.4394C61.8783 97.5754 60.7995 99.5251 59.1507 100.916C57.5018 102.307 55.3984 103.042 53.2419 102.981C51.0855 102.92 49.0271 102.067 47.4598 100.584C45.8925 99.102 44.926 97.0943 44.7449 94.9446L43.2134 76.2361C42.4242 77.4846 41.332 78.5131 40.0384 79.2258C38.7448 79.9385 37.2918 80.3123 35.8148 80.3124V80.3124C33.7609 80.3096 31.773 79.5865 30.1973 78.2691C28.6215 76.9516 27.5577 75.1233 27.191 73.1024L25.1058 61.6746H10.6503C8.32247 61.6746 6.09002 60.7499 4.44402 59.1039C2.79802 57.4579 1.87329 55.2255 1.87329 52.8977C1.87329 50.5699 2.79802 48.3374 4.44402 46.6914C6.09002 45.0454 8.32247 44.1207 10.6503 44.1207H21.324L22.938 40.7042C23.8157 38.8104 25.3429 37.2938 27.2427 36.4292C29.1425 35.5647 31.2892 35.4095 33.2936 35.9917L38.065 9.54301C38.4492 7.45285 39.5787 5.57307 41.2438 4.2526C42.909 2.93212 44.9966 2.26065 47.1194 2.36283C49.2421 2.46501 51.2556 3.33389 52.7862 4.8082C54.3169 6.2825 55.2606 8.26208 55.4423 10.3795L57.339 33.6119C58.4886 33.1184 59.7283 32.8697 60.9793 32.8815C63.1194 32.9176 65.1727 33.7335 66.7539 35.1759C68.3352 36.6184 69.3358 38.5882 69.5678 40.716L69.9331 44.1089H98.5613L100.175 40.6924C100.963 39.0074 102.267 37.6171 103.898 36.7232C105.529 35.8292 107.403 35.4781 109.247 35.7207C109.681 35.7804 110.11 35.8709 110.531 35.9917L115.243 9.54301C115.618 7.44327 116.745 5.55184 118.412 4.22221C120.08 2.89259 122.175 2.21577 124.306 2.31825C126.436 2.42073 128.456 3.2955 129.989 4.77906C131.521 6.26263 132.461 8.25346 132.632 10.3795L134.529 33.6119C135.675 33.1074 136.917 32.8581 138.17 32.8815C140.308 32.918 142.36 33.7342 143.939 35.1769C145.519 36.6195 146.517 38.5892 146.746 40.716L147.111 44.1089H175.74L177.354 40.6924C178.231 38.7986 179.759 37.282 181.658 36.4175C183.558 35.5529 185.705 35.3977 187.709 35.9799L192.481 9.53123C192.865 7.44107 193.994 5.56129 195.659 4.24081C197.325 2.92034 199.412 2.24887 201.535 2.35105C203.658 2.45323 205.671 3.32211 207.202 4.79642C208.732 6.27072 209.676 8.2503 209.858 10.3677L211.755 33.6001C212.901 33.0956 214.143 32.8464 215.395 32.8697C217.535 32.9059 219.588 33.7217 221.17 35.1641C222.751 36.6066 223.751 38.5765 223.983 40.7042L224.349 44.0971H252.977L254.591 40.6806C255.383 38.9991 256.688 37.6121 258.318 36.7188C259.948 35.8255 261.819 35.4719 263.662 35.709C264.096 35.7686 264.525 35.8592 264.947 35.9799L269.659 9.53123C270.043 7.44107 271.173 5.56129 272.838 4.24081C274.503 2.92034 276.591 2.24887 278.713 2.35105C280.836 2.45323 282.85 3.32211 284.38 4.79642C285.911 6.27072 286.855 8.2503 287.036 10.3677L288.933 33.6001C290.083 33.1079 291.322 32.8593 292.573 32.8697C294.712 32.9062 296.764 33.7224 298.343 35.1651C299.923 36.6077 300.921 38.5775 301.15 40.7042L301.515 44.0971H499.474C501.802 44.0971 504.034 45.0219 505.68 46.6679C507.326 48.3139 508.251 50.5463 508.251 52.8741C508.251 55.2019 507.326 57.4344 505.68 59.0804C504.034 60.7264 501.802 61.6511 499.474 61.6511H306.758L303.954 71.6651C303.473 73.3759 302.485 74.9008 301.12 76.0387C299.755 77.1765 298.077 77.8738 296.308 78.0387L293.869 95.4041C293.587 97.5071 292.551 99.4363 290.955 100.834C289.358 102.231 287.308 103.002 285.187 103.003V103.003Z" fill="#FA2A21"/>
</g>
<g opacity="0.01">
<path d="M285.187 102.367H284.927C282.922 102.31 281.007 101.515 279.551 100.135C278.095 98.7545 277.199 96.8856 277.034 94.8858L275.314 73.7857C274.822 75.4814 273.794 76.972 272.384 78.034C270.973 79.0961 269.257 79.6723 267.491 79.6763C265.584 79.6764 263.736 79.0065 262.272 77.7834C260.808 76.5604 259.82 74.862 259.48 72.9846L257.301 61.0385H229.026L226.128 71.5238C225.648 73.1861 224.652 74.6529 223.284 75.7119C221.916 76.7708 220.247 77.3671 218.517 77.4143L216.019 95.2981C215.729 97.2747 214.723 99.0759 213.193 100.36C211.662 101.644 209.713 102.321 207.716 102.263C205.719 102.204 203.813 101.415 202.36 100.044C200.906 98.6737 200.007 96.817 199.832 94.8269L198.112 73.7268C197.618 75.4235 196.588 76.9144 195.175 77.9763C193.763 79.0382 192.045 79.614 190.278 79.6174C188.368 79.618 186.52 78.9484 185.053 77.7256C183.587 76.5027 182.597 74.804 182.255 72.9257L180.075 61.0621H151.8L148.89 71.5238C148.415 73.1861 147.422 74.6536 146.055 75.7129C144.689 76.7722 143.02 77.3682 141.292 77.4143L138.841 95.357C138.551 97.3336 137.545 99.1348 136.014 100.419C134.484 101.702 132.535 102.38 130.538 102.321C128.541 102.263 126.635 101.474 125.181 100.103C123.728 98.7326 122.829 96.8759 122.654 94.8858L120.934 73.7857C120.442 75.4814 119.414 76.972 118.004 78.034C116.593 79.0961 114.877 79.6723 113.111 79.6763V79.6763C111.203 79.6764 109.356 79.0065 107.892 77.7834C106.428 76.5604 105.439 74.862 105.1 72.9846L102.92 61.0385H74.6456L71.6885 71.5238C71.2147 73.1871 70.2219 74.6556 68.855 75.7152C67.4882 76.7748 65.8186 77.3701 64.0896 77.4143L61.592 95.2981C61.3017 97.2747 60.2958 99.0759 58.7651 100.36C57.2345 101.644 55.2857 102.321 53.2888 102.263C51.2919 102.204 49.3858 101.415 47.9324 100.044C46.479 98.6737 45.5796 96.817 45.4048 94.8269L43.6847 73.7268C43.1907 75.4235 42.1604 76.9144 40.748 77.9763C39.3356 79.0382 37.6173 79.614 35.8503 79.6174C33.9425 79.6175 32.0952 78.9476 30.631 77.7245C29.1668 76.5015 28.1787 74.8031 27.8391 72.9257L25.6242 61.0621H10.6503C8.48815 61.0621 6.4145 60.2032 4.8856 58.6743C3.3567 57.1454 2.4978 55.0717 2.4978 52.9095C2.4978 50.7473 3.3567 48.6737 4.8856 47.1448C6.4145 45.6159 8.48815 44.757 10.6503 44.757H21.7247L23.5036 40.9752C24.2402 39.4128 25.4542 38.1247 26.9702 37.2968C28.4863 36.4689 30.2262 36.1439 31.9389 36.3688C32.5728 36.4478 33.1942 36.6061 33.7886 36.84L38.7013 9.67269C39.0598 7.73165 40.1103 5.98659 41.6579 4.76138C43.2054 3.53618 45.145 2.91405 47.1165 3.01047C49.088 3.10689 50.9576 3.9153 52.3782 5.28566C53.7989 6.65603 54.6741 8.49527 54.8415 10.462L56.8207 34.6134C57.9944 33.9364 59.3187 33.5636 60.6732 33.5288C62.0277 33.494 63.3694 33.7983 64.5764 34.4141C65.7833 35.0298 66.8172 35.9375 67.584 37.0546C68.3508 38.1717 68.8262 39.4627 68.9671 40.8103L69.3912 44.757H98.9854L100.764 40.9752C101.499 39.4137 102.711 38.1261 104.225 37.2981C105.739 36.4701 107.477 36.1447 109.188 36.3688C109.822 36.4463 110.444 36.6046 111.038 36.84L115.939 9.67269C116.297 7.73165 117.348 5.98659 118.895 4.76138C120.443 3.53618 122.382 2.91405 124.354 3.01047C126.325 3.10689 128.195 3.9153 129.615 5.28566C131.036 6.65603 131.911 8.49527 132.079 10.462L134.046 34.6134C135.322 33.8931 136.764 33.5194 138.228 33.5295C140.215 33.5641 142.121 34.3231 143.587 35.6638C145.054 37.0045 145.98 38.8346 146.193 40.8103L146.617 44.757H176.187L177.966 40.9752C178.703 39.4128 179.917 38.1247 181.433 37.2968C182.949 36.4689 184.689 36.1439 186.402 36.3688C187.035 36.4478 187.657 36.6061 188.251 36.84L193.14 9.67269C193.499 7.73165 194.549 5.98659 196.097 4.76138C197.645 3.53618 199.584 2.91405 201.556 3.01047C203.527 3.10689 205.397 3.9153 206.817 5.28566C208.238 6.65603 209.113 8.49527 209.281 10.462L211.26 34.6134C212.532 33.8946 213.969 33.5209 215.43 33.5295C217.419 33.5613 219.328 34.319 220.797 35.6599C222.266 37.0009 223.194 38.8327 223.406 40.8103L223.83 44.757H253.425L255.204 40.9752C255.94 39.4149 257.152 38.1283 258.665 37.3005C260.179 36.4728 261.916 36.1466 263.627 36.3688C264.261 36.4448 264.883 36.6032 265.477 36.84L270.378 9.67269C270.736 7.73165 271.787 5.98659 273.334 4.76138C274.882 3.53618 276.821 2.91405 278.793 3.01047C280.764 3.10689 282.634 3.9153 284.055 5.28566C285.475 6.65603 286.35 8.49527 286.518 10.462L288.462 34.6134C289.636 33.9369 290.961 33.5645 292.316 33.5298C293.671 33.4952 295.014 33.7994 296.221 34.415C297.429 35.0305 298.464 35.9378 299.232 37.0546C300 38.1714 300.477 39.4624 300.62 40.8103L301.044 44.757H499.474C501.636 44.757 503.71 45.6159 505.239 47.1448C506.768 48.6737 507.627 50.7473 507.627 52.9095C507.627 55.0717 506.768 57.1454 505.239 58.6743C503.71 60.2032 501.636 61.0621 499.474 61.0621H306.263L303.353 71.5238C302.878 73.1861 301.885 74.6536 300.518 75.7129C299.151 76.7722 297.483 77.3682 295.754 77.4143L293.257 95.2981C292.994 97.2533 292.032 99.0471 290.548 100.347C289.064 101.647 287.159 102.364 285.187 102.367V102.367Z" fill="#FA2A21"/>
</g>
<g opacity="0.01">
<path d="M285.187 101.742H284.927C283.077 101.688 281.312 100.954 279.969 99.6803C278.626 98.4069 277.799 96.6832 277.647 94.8387L275.585 69.1676L274.902 72.9375C274.592 74.6714 273.682 76.2412 272.332 77.3719C270.981 78.5027 269.276 79.1224 267.515 79.1226C265.754 79.1234 264.048 78.5058 262.696 77.3775C261.344 76.2493 260.431 74.682 260.116 72.9493L257.831 60.426H228.578L225.515 71.3589C225.056 72.9871 224.063 74.4138 222.696 75.4096C221.328 76.4053 219.666 76.9123 217.975 76.8489L215.419 95.2628C215.166 97.0982 214.244 98.7756 212.831 99.9731C211.417 101.171 209.611 101.804 207.759 101.751C205.907 101.699 204.14 100.964 202.796 99.6882C201.453 98.4125 200.628 96.6855 200.48 94.8387L198.359 69.1676L197.676 72.9375C197.364 74.6724 196.452 76.2424 195.1 77.373C193.747 78.5036 192.04 79.1229 190.278 79.1226C188.516 79.1257 186.809 78.5089 185.457 77.3802C184.104 76.2516 183.192 74.6831 182.879 72.9493L180.605 60.4849H151.341L148.266 71.3589C147.811 72.9893 146.819 74.4184 145.451 75.4148C144.082 76.4112 142.417 76.9165 140.726 76.8489L138.146 95.2628C137.882 97.0904 136.955 98.757 135.542 99.9457C134.128 101.134 132.328 101.762 130.482 101.71C128.636 101.658 126.874 100.929 125.53 99.6617C124.187 98.3948 123.356 96.6783 123.196 94.8387L121.169 69.1676L120.486 72.9375C120.174 74.6724 119.262 76.2424 117.909 77.373C116.557 78.5036 114.85 79.1229 113.087 79.1226V79.1226C111.326 79.1257 109.619 78.5089 108.266 77.3802C106.914 76.2516 106.001 74.6831 105.689 72.9493L103.415 60.4849H74.1036L71.0523 71.4178C70.5973 73.0482 69.6052 74.4773 68.2368 75.4737C66.8684 76.4701 65.2037 76.9754 63.5123 76.9078L60.9323 95.3217C60.6796 97.1571 59.7581 98.8345 58.3444 100.032C56.9308 101.23 55.1247 101.863 53.2728 101.81C51.4209 101.758 49.6536 101.023 48.3102 99.7471C46.9667 98.4714 46.1418 96.7444 45.9938 94.8976L43.885 69.1676L43.2134 72.9375C42.9012 74.6724 41.9891 76.2424 40.6367 77.373C39.2843 78.5036 37.5776 79.1229 35.8148 79.1226C34.0544 79.1211 32.3502 78.5026 30.9985 77.3748C29.6468 76.2469 28.7331 74.681 28.4163 72.9493L26.1543 60.4849H10.6503C8.65683 60.4849 6.74499 59.693 5.3354 58.2834C3.92581 56.8738 3.13391 54.9619 3.13391 52.9685C3.13391 50.975 3.92581 49.0632 5.3354 47.6536C6.74499 46.244 8.65683 45.4521 10.6503 45.4521H22.1251L24.069 41.3051C24.4983 40.397 25.1043 39.5837 25.8518 38.9127C26.5992 38.2417 27.473 37.7266 28.422 37.3974C29.371 37.0683 30.3761 36.9318 31.3785 36.9959C32.3809 37.06 33.3604 37.3234 34.2597 37.7708L39.3021 9.83766C39.6233 8.03955 40.5883 6.41994 42.0167 5.28152C43.4451 4.1431 45.2391 3.56377 47.0636 3.65182C48.888 3.73986 50.618 4.48926 51.9301 5.75994C53.2423 7.03062 54.0469 8.73563 54.1935 10.5563L56.2552 35.768C57.3127 34.9563 58.5668 34.44 59.8893 34.2719C61.2117 34.1038 62.5551 34.2898 63.7821 34.8111C65.0091 35.3323 66.0757 36.17 66.8728 37.2385C67.6699 38.3071 68.1691 39.5681 68.3191 40.8928L68.8021 45.405H99.3506L101.306 41.258C101.737 40.351 102.344 39.5388 103.091 38.8687C103.839 38.1986 104.712 37.684 105.661 37.3551C106.609 37.0261 107.614 36.8892 108.616 36.9525C109.618 37.0158 110.597 37.278 111.497 37.7237L116.528 9.79054C116.858 7.99901 117.828 6.38824 119.256 5.25691C120.684 4.12559 122.473 3.55048 124.293 3.63823C126.113 3.72597 127.839 4.47063 129.152 5.7341C130.464 6.99758 131.274 8.69414 131.431 10.5092L133.481 35.7209C134.542 34.9089 135.801 34.3937 137.128 34.2283C138.454 34.0628 139.801 34.253 141.029 34.7792C142.258 35.3055 143.325 36.149 144.12 37.2233C144.916 38.2975 145.411 39.5639 145.556 40.8928L146.039 45.405H176.541L178.485 41.258C178.914 40.3499 179.52 39.5365 180.267 38.8656C181.015 38.1946 181.889 37.6794 182.838 37.3503C183.787 37.0212 184.792 36.8847 185.794 36.9488C186.796 37.0129 187.776 37.2763 188.675 37.7237L193.718 9.79054C194.039 7.99243 195.004 6.37282 196.432 5.23439C197.861 4.09597 199.655 3.51664 201.479 3.60469C203.304 3.69274 205.034 4.44213 206.346 5.71281C207.658 6.98349 208.462 8.6885 208.609 10.5092L210.706 35.7209C212.051 34.6746 213.715 34.1252 215.419 34.1658C217.253 34.193 219.014 34.8913 220.368 36.1286C221.723 37.366 222.577 39.0566 222.77 40.881L223.253 45.3932H253.825L255.769 41.2462C256.2 40.3392 256.806 39.527 257.554 38.8569C258.302 38.1868 259.175 37.6723 260.124 37.3433C261.072 37.0143 262.077 36.8775 263.079 36.9407C264.081 37.004 265.06 37.2662 265.96 37.7119L270.99 9.77876C271.321 7.98723 272.29 6.37646 273.718 5.24513C275.146 4.11381 276.936 3.5387 278.756 3.62645C280.576 3.7142 282.302 4.45885 283.614 5.72232C284.927 6.9858 285.737 8.68236 285.893 10.4974L287.943 35.7091C289.287 34.6611 290.952 34.1115 292.656 34.154C294.491 34.1835 296.252 34.8822 297.608 36.1188C298.964 37.3555 299.821 39.0448 300.019 40.8692L300.502 45.3814H499.474C501.467 45.3814 503.379 46.1733 504.789 47.5829C506.198 48.9925 506.99 50.9043 506.99 52.8978C506.99 54.8913 506.198 56.8031 504.789 58.2127C503.379 59.6223 501.467 60.4142 499.474 60.4142H305.804L302.752 71.3471C302.29 72.9732 301.296 74.3975 299.929 75.3926C298.563 76.3878 296.902 76.8963 295.212 76.8371L292.632 95.2511C292.382 97.0489 291.491 98.6959 290.123 99.8887C288.755 101.082 287.002 101.74 285.187 101.742Z" fill="#FA2A21"/>
</g>
<g opacity="0.02">
<path d="M285.186 101.118H284.986C283.291 101.066 281.673 100.393 280.441 99.2269C279.21 98.0604 278.45 96.482 278.306 94.7917L275.82 64.2785L274.289 72.7727C274.002 74.361 273.167 75.7982 271.929 76.8338C270.691 77.8693 269.129 78.4376 267.515 78.4395V78.4395C265.9 78.4408 264.337 77.8755 263.097 76.8421C261.856 75.8086 261.018 74.3726 260.729 72.7845L258.373 59.8252H228.095L224.914 71.2176C224.481 72.7601 223.525 74.1037 222.209 75.0174C220.893 75.9312 219.3 76.358 217.704 76.2246H217.433L214.782 95.2276C214.555 96.9143 213.711 98.4571 212.414 99.559C211.117 100.661 209.458 101.244 207.757 101.195C206.055 101.147 204.432 100.471 203.2 99.2975C201.967 98.1239 201.212 96.5357 201.081 94.8388L198.583 64.3139L197.052 72.8198C196.767 74.4091 195.932 75.8476 194.694 76.8836C193.455 77.9196 191.892 78.487 190.277 78.4866V78.4866C188.663 78.488 187.1 77.9226 185.859 76.8892C184.619 75.8557 183.781 74.4197 183.491 72.8316L181.135 59.8724H150.869L147.689 71.2647C147.252 72.8048 146.295 74.1458 144.98 75.0589C143.665 75.9719 142.074 76.4006 140.478 76.2717H140.207L137.545 95.2747C137.317 96.9614 136.474 98.5043 135.177 99.6061C133.88 100.708 132.221 101.291 130.519 101.243C128.818 101.194 127.195 100.518 125.962 99.3447C124.73 98.171 123.975 96.5828 123.843 94.886L121.358 64.361L119.826 72.867C119.537 74.4562 118.699 75.8936 117.459 76.929C116.219 77.9645 114.656 78.5323 113.04 78.5337V78.5337C111.426 78.5351 109.862 77.9698 108.622 76.9363C107.382 75.9028 106.544 74.4669 106.254 72.8788L103.898 59.9195H73.6322L70.4513 71.3119C70.0167 72.8531 69.0598 74.1954 67.7445 75.1088C66.4292 76.0222 64.8372 76.45 63.2412 76.3189H62.9702L60.3194 95.3219C60.0919 97.0085 59.2484 98.5514 57.9513 99.6532C56.6541 100.755 54.9952 101.338 53.2939 101.29C51.5926 101.241 49.9694 100.565 48.7368 99.3918C47.5043 98.2181 46.7495 96.63 46.618 94.9331L44.1204 64.4199L42.5888 72.9141C42.3041 74.5034 41.4694 75.9419 40.231 76.9779C38.9926 78.0138 37.4293 78.5813 35.8147 78.5808C34.2018 78.5818 32.6398 78.016 31.4016 76.9824C30.1634 75.9488 29.3277 74.513 29.0405 72.9259L26.6843 59.9666H10.6501C8.82226 59.9666 7.06923 59.2405 5.77674 57.948C4.48424 56.6555 3.75818 54.9025 3.75818 53.0746C3.75818 51.2468 4.48424 49.4938 5.77674 48.2013C7.06923 46.9088 8.82226 46.1827 10.6501 46.1827H22.5256L24.6461 41.6822C25.2629 40.3694 26.2781 39.2846 27.5473 38.5823C28.8165 37.88 30.2749 37.5961 31.7148 37.7709C32.7764 37.9237 33.7861 38.3275 34.6601 38.949L39.8792 9.89669C40.1737 8.24791 41.0586 6.76282 42.3684 5.71898C43.6783 4.67514 45.3234 4.14401 46.9963 4.22484C48.6693 4.30567 50.2555 4.99294 51.4586 6.15819C52.6617 7.32345 53.3993 8.88694 53.5336 10.5564L55.7013 37.0523C56.5886 36.058 57.7451 35.3424 59.0307 34.9919C60.3164 34.6415 61.6761 34.6712 62.9452 35.0777C64.2143 35.4841 65.3383 36.2497 66.1813 37.2818C67.0242 38.3139 67.5498 39.5682 67.6945 40.8929L68.2364 45.9706H99.751L101.872 41.4702C102.292 40.5689 102.903 39.7695 103.663 39.1272C104.422 38.4848 105.312 38.0148 106.27 37.7494C107.229 37.484 108.234 37.4296 109.215 37.5899C110.197 37.7502 111.132 38.1215 111.956 38.6781L117.14 9.84957C117.444 8.20735 118.333 6.73108 119.643 5.69433C120.952 4.65758 122.593 4.13064 124.261 4.21118C125.929 4.29171 127.512 4.97425 128.715 6.13231C129.919 7.29037 130.662 8.84543 130.806 10.5093L132.95 37.0523C133.597 36.3384 134.386 35.7681 135.267 35.3785C136.147 34.9888 137.1 34.7884 138.063 34.7903H138.169C139.845 34.8133 141.456 35.4452 142.7 36.5681C143.944 37.691 144.737 39.2282 144.932 40.8929L145.474 45.9706H176.988L179.109 41.4702C179.729 40.1468 180.753 39.0546 182.035 38.3516C183.316 37.6485 184.787 37.3709 186.236 37.5588C187.298 37.7116 188.308 38.1155 189.182 38.737L194.377 9.90847C194.672 8.25969 195.557 6.7746 196.867 5.73076C198.176 4.68693 199.821 4.15579 201.494 4.23662C203.167 4.31745 204.754 5.00472 205.957 6.16998C207.16 7.33523 207.897 8.89871 208.032 10.5682L210.199 37.064C210.844 36.351 211.631 35.7813 212.51 35.3916C213.389 35.002 214.339 34.8011 215.301 34.8021H215.418C217.089 34.8279 218.694 35.4598 219.933 36.5802C221.173 37.7007 221.963 39.2333 222.157 40.8929L222.699 45.9706H254.214L256.334 41.4702C256.755 40.5689 257.366 39.7695 258.125 39.1272C258.885 38.4848 259.775 38.0148 260.733 37.7494C261.692 37.484 262.696 37.4296 263.678 37.5899C264.66 37.7502 265.595 38.1215 266.419 38.6781L271.615 9.84957C271.909 8.20079 272.794 6.71569 274.104 5.67185C275.414 4.62802 277.059 4.09688 278.732 4.17771C280.405 4.25855 281.991 4.94581 283.194 6.11107C284.397 7.27632 285.135 8.83981 285.269 10.5093L287.425 37.0051C288.071 36.2912 288.86 35.721 289.741 35.3314C290.622 34.9417 291.575 34.7413 292.538 34.7431H292.644C294.325 34.7704 295.938 35.4102 297.181 36.5425C298.424 37.6747 299.211 39.2216 299.395 40.8929L299.936 45.9706H499.474C501.302 45.9706 503.055 46.6967 504.347 47.9892C505.64 49.2817 506.366 51.0347 506.366 52.8626C506.366 54.6904 505.64 56.4434 504.347 57.7359C503.055 59.0284 501.302 59.7545 499.474 59.7545H305.332L302.151 71.1469C301.735 72.7047 300.785 74.0672 299.468 74.9971C298.15 75.927 296.549 76.3655 294.941 76.2364H294.67L291.996 95.1805C291.768 96.8253 290.954 98.3324 289.702 99.4236C288.451 100.515 286.847 101.117 285.186 101.118V101.118Z" fill="#FA2A21"/>
</g>
<g opacity="0.02">
<path d="M285.186 100.494H284.998C283.457 100.447 281.987 99.8329 280.87 98.7701C279.753 97.7072 279.066 96.2698 278.942 94.7328L276.056 59.4483L273.7 72.655C273.44 74.1028 272.679 75.413 271.551 76.3564C270.422 77.2998 268.997 77.8161 267.526 77.8151V77.8151C266.064 77.8154 264.648 77.3044 263.523 76.3707C262.398 75.437 261.634 74.1392 261.365 72.7021L258.903 59.2009H227.624L224.313 70.982C223.925 72.3871 223.058 73.6121 221.862 74.4448C220.665 75.2775 219.215 75.6654 217.763 75.5413C217.473 75.5221 217.185 75.4788 216.903 75.4118L214.158 95.0863C213.942 96.6132 213.171 98.007 211.992 99.0012C210.814 99.9953 209.31 100.52 207.768 100.475C206.227 100.43 204.756 99.8176 203.638 98.7561C202.519 97.6946 201.831 96.258 201.705 94.7211L198.819 59.3776L196.463 72.5961C196.203 74.0419 195.444 75.3506 194.318 76.2937C193.192 77.2368 191.77 77.7545 190.301 77.7562V77.7562C188.832 77.7577 187.409 77.243 186.28 76.302C185.152 75.361 184.39 74.0535 184.128 72.6078L181.677 59.1066H150.386L147.076 70.8878C146.688 72.2928 145.821 73.5178 144.624 74.3505C143.428 75.1833 141.978 75.5712 140.526 75.4471C140.24 75.4288 139.956 75.3854 139.677 75.3175L136.932 95.0863C136.729 96.6245 135.962 98.0326 134.781 99.0382C133.599 100.044 132.086 100.575 130.535 100.53C128.984 100.484 127.505 99.8652 126.385 98.7922C125.264 97.7192 124.581 96.2686 124.468 94.7211L121.593 59.3776L119.237 72.5961C118.982 74.0439 118.224 75.3553 117.097 76.2992C115.97 77.2431 114.546 77.7591 113.076 77.7562V77.7562C111.608 77.755 110.188 77.239 109.062 76.2982C107.936 75.3575 107.176 74.0515 106.914 72.6078L104.452 59.1066H73.161L69.8505 70.8878C69.4605 72.2916 68.5927 73.5153 67.3968 74.3477C66.201 75.18 64.7521 75.5689 63.3002 75.4471C63.0104 75.4279 62.7228 75.3845 62.4402 75.3175L59.6952 95.0863C59.4795 96.6132 58.7085 98.007 57.5297 99.0012C56.3508 99.9953 54.8468 100.52 53.3054 100.475C51.764 100.43 50.2934 99.8176 49.1748 98.7561C48.0562 97.6946 47.3682 96.258 47.2425 94.7211L44.3561 59.4483L41.9998 72.655C41.7403 74.1008 40.9812 75.4095 39.855 76.3526C38.7288 77.2957 37.3072 77.8134 35.8383 77.8151V77.8151C34.3711 77.8139 32.9508 77.2979 31.8249 76.3571C30.6989 75.4164 29.9388 74.1104 29.6768 72.6667L27.2263 59.1655H10.7327C9.07041 59.1655 7.47619 58.5052 6.30079 57.3298C5.12539 56.1544 4.46509 54.5602 4.46509 52.898C4.46509 51.2357 5.12539 49.6415 6.30079 48.4661C7.47619 47.2907 9.07041 46.6304 10.7327 46.6304H22.9143L25.2117 41.7648C25.7803 40.567 26.7134 39.58 27.8774 38.9451C29.0414 38.3102 30.3764 38.06 31.6913 38.2304C32.9893 38.4025 34.2028 38.9702 35.1668 39.8562L40.539 10.0146C40.8069 8.5151 41.6117 7.16453 42.803 6.21528C43.9942 5.26603 45.4904 4.78308 47.0118 4.85669C48.5332 4.93031 49.9757 5.55546 51.0698 6.61528C52.1638 7.67511 52.8344 9.09707 52.9563 10.6154L55.3125 38.8902C55.9324 37.7024 56.9166 36.7445 58.1207 36.157C59.3248 35.5695 60.6855 35.3833 62.0032 35.6257C63.3209 35.8682 64.5262 36.5265 65.4423 37.5042C66.3585 38.4818 66.9372 39.7273 67.0937 41.0579L67.7063 46.7364C67.9455 46.7185 68.1857 46.7185 68.425 46.7364H100.175L102.461 41.8708C103.026 40.6707 103.959 39.6815 105.124 39.0462C106.289 38.4109 107.625 38.1623 108.94 38.3365C110.235 38.5086 111.445 39.0764 112.404 39.9622L117.788 10.1206C118.056 8.62113 118.861 7.27056 120.052 6.32131C121.243 5.37206 122.739 4.88911 124.261 4.96273C125.782 5.03634 127.225 5.66149 128.319 6.72131C129.413 7.78114 130.083 9.2031 130.205 10.7214L132.562 38.9962C133.181 37.8084 134.166 36.8505 135.37 36.263C136.574 35.6755 137.935 35.4893 139.252 35.7318C140.57 35.9742 141.775 36.6326 142.691 37.6102C143.608 38.5878 144.186 39.8333 144.343 41.1639L144.955 46.8424C145.195 46.8245 145.435 46.8245 145.674 46.8424H177.412L179.71 41.9768C180.13 41.0835 180.755 40.3021 181.534 39.6961C182.313 39.0901 183.224 38.6766 184.193 38.4895C185.163 38.3023 186.162 38.3467 187.111 38.619C188.06 38.8913 188.931 39.3838 189.653 40.0565L195.025 10.2148C195.293 8.71537 196.098 7.3648 197.289 6.41555C198.481 5.46631 199.977 4.98335 201.498 5.05697C203.02 5.13059 204.462 5.75574 205.556 6.81556C206.65 7.87539 207.321 9.29735 207.443 10.8157L209.799 39.0904C210.296 38.0121 211.087 37.0955 212.081 36.4455C213.074 35.7954 214.231 35.4382 215.418 35.4147C216.947 35.4379 218.414 36.0199 219.543 37.0509C220.671 38.082 221.384 39.4906 221.545 41.0108L222.157 46.6893C222.396 46.6717 222.637 46.6717 222.876 46.6893H254.626L256.912 41.8237C257.332 40.9304 257.957 40.1489 258.736 39.5429C259.515 38.9369 260.426 38.5235 261.395 38.3363C262.364 38.1491 263.364 38.1935 264.313 38.4658C265.262 38.7381 266.133 39.2307 266.855 39.9033L272.239 10.0617C272.507 8.56222 273.312 7.21165 274.503 6.2624C275.694 5.31315 277.19 4.8302 278.712 4.90382C280.233 4.97744 281.676 5.60258 282.77 6.66241C283.864 7.72224 284.534 9.1442 284.656 10.6625L287.013 38.9373C287.632 37.7495 288.617 36.7916 289.821 36.2041C291.025 35.6166 292.386 35.4304 293.703 35.6729C295.021 35.9153 296.226 36.5736 297.142 37.5513C298.058 38.5289 298.637 39.7744 298.794 41.105L299.406 46.7835C299.646 46.7656 299.886 46.7656 300.125 46.7835H499.474C501.136 46.7835 502.73 47.4439 503.906 48.6193C505.081 49.7947 505.741 51.3888 505.741 53.0511C505.741 54.7134 505.081 56.3076 503.906 57.483C502.73 58.6584 501.136 59.3187 499.474 59.3187H304.849L301.539 71.0998C301.151 72.5049 300.283 73.7299 299.087 74.5626C297.891 75.3953 296.441 75.7832 294.988 75.6592C294.702 75.6408 294.419 75.5975 294.14 75.5296L291.395 95.0863C291.185 96.5843 290.441 97.9561 289.301 98.9496C288.16 99.9431 286.699 100.491 285.186 100.494V100.494Z" fill="#FA2A21"/>
</g>
<g opacity="0.03">
<path d="M285.186 99.8694H285.021C283.634 99.8331 282.309 99.2846 281.302 98.3297C280.295 97.3748 279.677 96.081 279.567 94.6975L276.292 54.6416L273.052 72.5843C272.819 73.8865 272.136 75.0653 271.121 75.914C270.107 76.7628 268.826 77.2273 267.503 77.226C266.183 77.2231 264.906 76.7587 263.892 75.9131C262.879 75.0675 262.193 73.8941 261.954 72.5961L259.397 58.5293C259.131 58.5473 258.863 58.5473 258.596 58.5293H227.2L223.665 70.8524C223.311 72.1131 222.53 73.2114 221.456 73.9594C220.381 74.7074 219.08 75.0584 217.775 74.9523C217.287 74.9175 216.808 74.8144 216.349 74.646L213.498 95.0038C213.297 96.3711 212.601 97.6171 211.543 98.5055C210.484 99.394 209.136 99.863 207.755 99.8238C206.373 99.7846 205.054 99.2398 204.048 98.2927C203.041 97.3457 202.417 96.0622 202.294 94.6857L199.019 54.6298L195.791 72.5725C195.556 73.8737 194.872 75.0512 193.858 75.8995C192.844 76.7478 191.564 77.2132 190.242 77.2143C188.921 77.216 187.641 76.7532 186.627 75.9068C185.613 75.0604 184.928 73.8843 184.693 72.5843L182.125 58.5176C181.858 58.5355 181.59 58.5355 181.324 58.5176H149.915L146.475 70.8171C146.123 72.0789 145.343 73.1786 144.267 73.9269C143.192 74.6753 141.89 75.0253 140.584 74.9169C140.101 74.8822 139.625 74.7791 139.171 74.6106L136.32 94.9685C136.13 96.3465 135.438 97.606 134.377 98.5051C133.316 99.4043 131.96 99.8798 130.569 99.8404C129.179 99.8009 127.852 99.2493 126.843 98.2915C125.835 97.3336 125.215 96.0369 125.104 94.6504L121.841 54.5944L118.601 72.5371C118.368 73.8394 117.685 75.0182 116.67 75.8669C115.656 76.7156 114.375 77.1801 113.052 77.1789V77.1789C111.731 77.1783 110.453 76.7147 109.439 75.8687C108.425 75.0227 107.74 73.848 107.503 72.5489L104.946 58.4822C104.68 58.4997 104.412 58.4997 104.145 58.4822H72.6896L69.2614 70.7818C68.9076 72.0424 68.1265 73.1408 67.0518 73.8887C65.9772 74.6367 64.6758 74.9877 63.3708 74.8816C62.8836 74.8468 62.4037 74.7437 61.9452 74.5753L59.0942 94.9331C58.8932 96.3004 58.1974 97.5464 57.1388 98.4349C56.0802 99.3233 54.7324 99.7924 53.3509 99.7531C51.9694 99.7139 50.6504 99.1691 49.6439 98.2221C48.6374 97.275 48.0135 95.9915 47.8903 94.615L44.6152 54.5591L41.3872 72.5018C41.1526 73.803 40.4685 74.9805 39.4543 75.8288C38.4402 76.6772 37.1604 77.1425 35.8382 77.1436V77.1436C34.5184 77.1407 33.2411 76.6762 32.2277 75.8306C31.2142 74.985 30.5285 73.8116 30.2893 72.5136L27.7328 58.4469C27.466 58.4648 27.1984 58.4648 26.9317 58.4469H10.6501C9.15344 58.4469 7.7181 57.8523 6.6598 56.794C5.6015 55.7357 5.00696 54.3004 5.00696 52.8037C5.00696 51.307 5.6015 49.8717 6.6598 48.8134C7.7181 47.7551 9.15344 47.1605 10.6501 47.1605H23.3148L25.7418 42.0711C26.1652 41.1732 26.818 40.4029 27.6342 39.838C28.4504 39.273 29.4013 38.9333 30.3907 38.8533C31.3802 38.7732 32.3733 38.9556 33.2697 39.3819C34.1662 39.8083 34.9343 40.4636 35.4966 41.2817L41.1162 10.1441C41.3667 8.80352 42.0944 7.599 43.1644 6.7534C44.2345 5.9078 45.5745 5.47833 46.9368 5.54443C48.299 5.61053 49.5912 6.16773 50.5744 7.11296C51.5575 8.05819 52.1651 9.32749 52.2847 10.6861L54.9237 43.0253L55.2182 40.9165C55.4165 39.5592 56.1024 38.3207 57.1476 37.4324C58.1927 36.544 59.5256 36.0668 60.8971 36.0899C62.2686 36.113 63.5848 36.6349 64.5994 37.5579C65.6141 38.4809 66.2579 39.7418 66.4103 41.105L67.0936 47.4433C67.5096 47.3388 67.9371 47.2874 68.366 47.2901H100.552L103.003 42.0711C103.428 41.1734 104.082 40.4035 104.899 39.8389C105.716 39.2743 106.668 38.9349 107.658 38.8549C108.648 38.7749 109.642 38.957 110.539 39.3831C111.436 39.8091 112.205 40.464 112.769 41.2817L118.377 10.1441C118.618 8.79401 119.343 7.57796 120.416 6.7233C121.488 5.86864 122.835 5.43387 124.205 5.50027C125.575 5.56668 126.874 6.1297 127.859 7.0841C128.844 8.0385 129.448 9.31894 129.557 10.6861L132.196 43.0253L132.491 40.9165C132.679 39.5695 133.348 38.336 134.374 37.4438C135.4 36.5516 136.715 36.061 138.075 36.0627H138.169C139.545 36.0865 140.865 36.6121 141.88 37.5407C142.896 38.4693 143.537 39.7369 143.683 41.105L144.366 47.4433C144.783 47.3446 145.21 47.2932 145.639 47.2901H177.778L180.24 42.0711C180.663 41.1732 181.316 40.4029 182.132 39.838C182.949 39.273 183.899 38.9333 184.889 38.8533C185.878 38.7732 186.871 38.9556 187.768 39.3819C188.664 39.8083 189.432 40.4636 189.995 41.2817L195.614 10.1441C195.865 8.80352 196.592 7.599 197.663 6.7534C198.733 5.9078 200.073 5.47833 201.435 5.54443C202.797 5.61053 204.089 6.16773 205.072 7.11296C206.056 8.05819 206.663 9.32749 206.783 10.6861L209.422 43.0253L209.716 40.9165C209.915 39.5592 210.6 38.3207 211.646 37.4324C212.691 36.544 214.024 36.0668 215.395 36.0899C216.767 36.113 218.083 36.6349 219.097 37.5579C220.112 38.4809 220.756 39.7418 220.908 41.105L221.592 47.4433C222.009 47.3446 222.436 47.2932 222.864 47.2901H255.015L257.465 42.0711C257.888 41.1705 258.541 40.3977 259.358 39.8308C260.175 39.2639 261.128 38.9232 262.12 38.843C263.111 38.7629 264.106 38.9462 265.004 39.3745C265.902 39.8028 266.67 40.4607 267.232 41.2817L272.84 10.1441C273.081 8.79401 273.806 7.57796 274.878 6.7233C275.951 5.86864 277.298 5.43387 278.668 5.50027C280.038 5.56668 281.337 6.1297 282.322 7.0841C283.307 8.0385 283.91 9.31894 284.02 10.6861L286.659 43.0253L286.954 40.9165C287.152 39.5592 287.838 38.3207 288.883 37.4324C289.928 36.544 291.261 36.0668 292.632 36.0899C294.004 36.113 295.32 36.6349 296.335 37.5579C297.349 38.4809 297.993 39.7418 298.146 41.105L298.829 47.4433C299.246 47.3446 299.673 47.2932 300.101 47.2901H499.474C500.97 47.2901 502.406 47.8847 503.464 48.943C504.522 50.0013 505.117 51.4366 505.117 52.9333C505.117 54.43 504.522 55.8653 503.464 56.9236C502.406 57.9819 500.97 58.5765 499.474 58.5765H304.378L300.938 70.876C300.586 72.1378 299.805 73.2375 298.73 73.9859C297.655 74.7342 296.353 75.0842 295.047 74.9758C294.564 74.9411 294.088 74.838 293.633 74.6695L290.818 95.0038C290.629 96.36 289.954 97.6013 288.918 98.4965C287.882 99.3917 286.556 99.8796 285.186 99.8694Z" fill="#FA2A21"/>
</g>
<g opacity="0.03">
<path d="M285.186 99.2331H285.033C283.802 99.1993 282.626 98.7114 281.732 97.8633C280.838 97.0152 280.29 95.8667 280.191 94.6385L276.527 49.7758L272.439 72.431C272.228 73.5877 271.619 74.6341 270.717 75.3892C269.816 76.1443 268.679 76.5606 267.503 76.5662V76.5662C266.328 76.5657 265.19 76.1527 264.288 75.3992C263.385 74.6456 262.776 73.5994 262.567 72.4428L259.892 57.7517C259.471 57.8705 259.035 57.93 258.596 57.9284H226.67L223.135 70.6874C222.817 71.807 222.121 72.7817 221.165 73.4455C220.209 74.1093 219.053 74.4211 217.893 74.3278C217.199 74.2725 216.524 74.0717 215.913 73.7387L212.956 94.9448C212.786 96.1418 212.189 97.2372 211.276 98.0294C210.362 98.8216 209.194 99.2574 207.985 99.2567H207.843C206.61 99.2231 205.433 98.7357 204.537 97.8878C203.642 97.0399 203.091 95.8913 202.989 94.662L199.325 49.7994L195.237 72.4546C195.031 73.6113 194.424 74.6588 193.524 75.4144C192.625 76.1701 191.488 76.586 190.313 76.5898V76.5898C189.137 76.5893 187.999 76.1763 187.097 75.4227C186.195 74.6692 185.586 73.6229 185.377 72.4663L182.667 57.7517C182.241 57.8697 181.801 57.9292 181.359 57.9284H149.444L145.91 70.6874C145.59 71.8058 144.893 72.7792 143.938 73.4426C142.982 74.1061 141.827 74.4188 140.667 74.3278C139.973 74.276 139.298 74.0751 138.688 73.7387L135.719 94.9448C135.536 96.162 134.916 97.271 133.975 98.0645C133.034 98.858 131.837 99.2818 130.606 99.2567C129.374 99.2228 128.199 98.735 127.305 97.8869C126.411 97.0388 125.862 95.8902 125.764 94.662L122.088 49.7994L118.012 72.4546C117.8 73.6113 117.191 74.6577 116.29 75.4128C115.388 76.1679 114.251 76.5842 113.076 76.5898V76.5898C111.9 76.5893 110.762 76.1763 109.86 75.4227C108.958 74.6692 108.349 73.6229 108.139 72.4663L105.465 57.7752C105.043 57.8941 104.607 57.9536 104.169 57.952H72.2421L68.7078 70.711C68.3879 71.8293 67.6913 72.8027 66.7358 73.4662C65.7803 74.1297 64.6249 74.4424 63.4652 74.3513C62.7714 74.296 62.0971 74.0953 61.486 73.7623L58.5289 94.9684C58.3586 96.1654 57.7619 97.2607 56.8484 98.0529C55.935 98.8451 54.7663 99.2809 53.5572 99.2803H53.4158C52.1829 99.2467 51.0058 98.7592 50.1101 97.9113C49.2144 97.0635 48.6631 95.9148 48.562 94.6856L44.8274 49.7758L40.7393 72.431C40.5324 73.5877 39.9262 74.6352 39.0263 75.3909C38.1264 76.1465 36.9899 76.5625 35.8148 76.5662C34.6408 76.5653 33.5044 76.1518 32.6042 75.3981C31.7041 74.6444 31.0975 73.5984 30.8903 72.4428L28.2159 57.7517C27.7901 57.8697 27.3501 57.9292 26.9082 57.9284H10.6503C9.31919 57.9284 8.04266 57.3996 7.10145 56.4584C6.16025 55.5172 5.63147 54.2407 5.63147 52.9096C5.63147 51.5786 6.16025 50.302 7.10145 49.3608C8.04266 48.4196 9.31919 47.8909 10.6503 47.8909H23.7156L26.3428 42.3066C26.7961 41.3654 27.5318 40.5891 28.4473 40.086C29.3628 39.5829 30.4125 39.378 31.4501 39.4999C32.4876 39.6218 33.4612 40.0645 34.2351 40.7661C35.0091 41.4677 35.5449 42.3934 35.7677 43.414L41.7643 10.2618C41.9872 9.0707 42.6335 8.00044 43.584 7.24869C44.5344 6.49694 45.7248 6.11447 46.9353 6.1719C48.1457 6.22934 49.2945 6.7228 50.1695 7.56117C51.0446 8.39954 51.5867 9.5262 51.6958 10.7331L54.7942 48.7155L55.8781 41.0107C56.0518 39.8024 56.6598 38.6989 57.5884 37.9066C58.517 37.1143 59.7025 36.6876 60.923 36.7064C62.1435 36.7252 63.3154 37.1881 64.2192 38.0086C65.123 38.8291 65.6968 39.9508 65.8332 41.1638L66.5872 48.2325C67.1665 48.0107 67.7811 47.895 68.4015 47.8909H100.953L103.568 42.3184C104.021 41.3771 104.755 40.6005 105.67 40.0966C106.585 39.5927 107.634 39.3867 108.671 39.5073C109.708 39.6279 110.682 40.0691 111.457 40.7693C112.232 41.4696 112.769 42.3941 112.993 43.414L119.002 10.2618C119.215 9.06424 119.857 7.9853 120.808 7.22657C121.759 6.46784 122.953 6.08122 124.168 6.13894C125.384 6.19667 126.536 6.69478 127.411 7.54024C128.285 8.38569 128.822 9.52065 128.921 10.7331L132.031 48.7155L133.104 41.0107C133.263 39.793 133.868 38.6775 134.801 37.8792C135.734 37.0809 136.93 36.6562 138.158 36.687C139.379 36.711 140.55 37.1786 141.451 38.0023C142.353 38.8261 142.924 39.9498 143.059 41.1638L143.824 48.2325C144.404 48.0107 145.018 47.895 145.639 47.8909H178.178L180.805 42.3066C181.259 41.3654 181.995 40.5891 182.91 40.086C183.826 39.5829 184.875 39.378 185.913 39.4999C186.95 39.6218 187.924 40.0645 188.698 40.7661C189.472 41.4677 190.008 42.3934 190.23 43.414L196.227 10.2618C196.45 9.0707 197.096 8.00044 198.047 7.24869C198.997 6.49694 200.188 6.11447 201.398 6.1719C202.609 6.22934 203.757 6.7228 204.632 7.56117C205.507 8.39954 206.049 9.5262 206.159 10.7331L209.257 48.7155L210.341 41.0107C210.514 39.8024 211.123 38.6989 212.051 37.9066C212.98 37.1143 214.165 36.6876 215.386 36.7064C216.606 36.7252 217.778 37.1881 218.682 38.0086C219.586 38.8291 220.16 39.9508 220.296 41.1638L221.05 48.2325C221.629 48.0107 222.244 47.895 222.864 47.8909H255.474L258.102 42.3066C258.555 41.3654 259.291 40.5891 260.206 40.086C261.122 39.5829 262.171 39.378 263.209 39.4999C264.246 39.6218 265.22 40.0645 265.994 40.7661C266.768 41.4677 267.304 42.3934 267.527 43.414L273.464 10.2618C273.687 9.0707 274.334 8.00044 275.284 7.24869C276.234 6.49694 277.425 6.11447 278.635 6.1719C279.846 6.22934 280.995 6.7228 281.87 7.56117C282.745 8.39954 283.287 9.5262 283.396 10.7331L286.494 48.7155L287.578 41.0107C287.741 39.7956 288.344 38.6825 289.273 37.8824C290.202 37.0823 291.392 36.6508 292.618 36.6697C293.844 36.6886 295.02 37.1565 295.924 37.9848C296.828 38.8132 297.396 39.9443 297.521 41.1638L298.287 48.2325C298.867 48.0107 299.481 47.895 300.101 47.8909H499.474C500.805 47.8909 502.082 48.4196 503.023 49.3608C503.964 50.302 504.493 51.5786 504.493 52.9096C504.493 54.2407 503.964 55.5172 503.023 56.4584C502.082 57.3996 500.805 57.9284 499.474 57.9284H303.907L300.372 70.6874C300.055 71.807 299.358 72.7817 298.402 73.4455C297.446 74.1093 296.29 74.4211 295.13 74.3278C294.435 74.276 293.76 74.0751 293.151 73.7387L290.182 94.9448C290.008 96.1426 289.406 97.237 288.488 98.0254C287.57 98.8137 286.397 99.2428 285.186 99.2331Z" fill="#FA2A21"/>
</g>
<g opacity="0.04">
<path d="M285.187 98.6205H285.057C283.977 98.5917 282.946 98.1641 282.163 97.4201C281.38 96.676 280.9 95.6683 280.816 94.5913L276.751 44.9573L271.827 72.3367C271.642 73.3487 271.108 74.2637 270.318 74.9225C269.528 75.5813 268.532 75.942 267.503 75.9418V75.9418C266.485 75.9469 265.498 75.5966 264.71 74.9514C263.923 74.3061 263.386 73.4064 263.191 72.4074L260.387 56.9152C259.823 57.1651 259.213 57.2936 258.597 57.2922H226.198L222.487 70.5107C222.214 71.4928 221.607 72.3489 220.77 72.9316C219.934 73.5144 218.92 73.7873 217.904 73.7033C216.989 73.647 216.117 73.2957 215.419 72.702L212.308 94.8859C212.169 95.9637 211.635 96.9515 210.809 97.6575C209.983 98.3635 208.924 98.7373 207.837 98.7065C206.751 98.6757 205.715 98.2424 204.93 97.4907C204.145 96.7389 203.668 95.7224 203.59 94.6385L199.538 45.0045L194.601 72.3839C194.419 73.3948 193.887 74.3097 193.099 74.9686C192.311 75.6275 191.317 75.9886 190.289 75.9889C189.27 75.9945 188.281 75.6446 187.492 74.9995C186.703 74.3545 186.163 73.4545 185.966 72.4546L183.15 56.9152C182.587 57.1662 181.976 57.2947 181.359 57.2922H148.961L145.274 70.5107C145 71.4949 144.391 72.3526 143.552 72.9356C142.713 73.5186 141.697 73.7901 140.679 73.7033C139.749 73.6329 138.868 73.2606 138.17 72.643L135.059 94.827C134.917 95.8753 134.399 96.8363 133.602 97.5317C132.804 98.2271 131.782 98.6098 130.724 98.6087H130.594C129.514 98.58 128.483 98.1523 127.7 97.4083C126.917 96.6643 126.437 95.6566 126.353 94.5796L122.347 44.9455L117.411 72.325C117.231 73.337 116.7 74.2531 115.911 74.9124C115.123 75.5717 114.127 75.932 113.099 75.93V75.93C112.081 75.9351 111.094 75.5848 110.307 74.9396C109.519 74.2944 108.982 73.3946 108.787 72.3956L105.925 56.9152C105.361 57.1651 104.751 57.2936 104.134 57.2922H71.6885L67.9892 70.5107C67.7159 71.4928 67.1088 72.3489 66.2723 72.9316C65.4358 73.5144 64.4223 73.7873 63.4063 73.7033C62.4725 73.6354 61.5869 73.2629 60.8852 72.643L57.7867 94.827C57.6392 95.8752 57.1181 96.835 56.3194 97.5298C55.5207 98.2246 54.4981 98.6077 53.4395 98.6087H53.3099C52.2309 98.5774 51.2013 98.1489 50.4186 97.4054C49.636 96.6618 49.1553 95.6556 49.0687 94.5796L45.0631 44.9455L40.1268 72.325C39.9445 73.3359 39.4129 74.2508 38.6248 74.9097C37.8367 75.5686 36.8421 75.9297 35.8149 75.93V75.93C34.7977 75.9328 33.8112 75.5817 33.0245 74.9369C32.2378 74.292 31.6999 73.3936 31.503 72.3956L28.6873 56.9152C28.1238 57.1662 27.5134 57.2947 26.8965 57.2922H10.6503C9.48799 57.2922 8.37327 56.8305 7.55137 56.0086C6.72948 55.1867 6.2677 54.0719 6.2677 52.9096C6.2677 51.7473 6.72948 50.6325 7.55137 49.8107C8.37327 48.9888 9.48799 48.527 10.6503 48.527H24.1162L26.9083 42.6364C27.31 41.8082 27.9623 41.1275 28.7726 40.6909C29.5829 40.2542 30.5101 40.0838 31.4227 40.2037C32.3353 40.3237 33.187 40.7279 33.8569 41.3591C34.5269 41.9903 34.9811 42.8164 35.1551 43.7203L35.756 46.9837L42.3417 10.4032C42.525 9.33218 43.0956 8.36592 43.945 7.68819C44.7943 7.01046 45.8631 6.66854 46.9481 6.72747C48.0127 6.77853 49.0222 7.21579 49.7877 7.95741C50.5531 8.69903 51.0221 9.69419 51.1069 10.7566L54.6412 54.3469L56.5144 41.0342C56.6593 39.9869 57.178 39.0273 57.9747 38.3324C58.7715 37.6374 59.7926 37.2538 60.8498 37.2525H60.9205C61.9914 37.2664 63.0201 37.672 63.8124 38.3926C64.6046 39.1132 65.1056 40.099 65.2207 41.1638L66.0689 49.1514C66.7739 48.7069 67.5916 48.4739 68.4251 48.4799H101.412L104.204 42.5893C104.611 41.7675 105.265 41.0935 106.074 40.6617C106.883 40.2299 107.806 40.062 108.716 40.1815C109.625 40.301 110.474 40.7019 111.144 41.328C111.813 41.9542 112.271 42.7742 112.451 43.6732L113.04 46.9366L119.638 10.3561C119.829 9.31255 120.389 8.37234 121.215 7.70643C122.04 7.04053 123.078 6.69315 124.138 6.72747C125.203 6.77853 126.212 7.21579 126.978 7.95741C127.743 8.69903 128.212 9.69419 128.297 10.7566L131.831 54.3469L133.693 41.0342C133.833 39.9681 134.361 38.9908 135.175 38.2885C135.99 37.5861 137.034 37.2076 138.109 37.2251C139.184 37.2426 140.215 37.6547 141.006 38.3832C141.797 39.1116 142.293 40.1054 142.399 41.1756L143.259 49.1632C143.963 48.7169 144.782 48.4836 145.615 48.4917H178.603L181.395 42.6011C181.796 41.7729 182.449 41.0922 183.259 40.6555C184.069 40.2189 184.996 40.0484 185.909 40.1684C186.822 40.2883 187.673 40.6926 188.343 41.3238C189.013 41.955 189.467 42.7811 189.641 43.685L190.242 46.9483L196.828 10.3678C197.025 9.32583 197.593 8.39028 198.425 7.73378C199.258 7.07729 200.301 6.74415 201.36 6.79582C202.419 6.84749 203.424 7.28049 204.189 8.01493C204.954 8.74937 205.428 9.7357 205.522 10.792L209.057 54.3823L210.918 41.0695C211.059 40.0034 211.586 39.0262 212.401 38.3238C213.215 37.6214 214.259 37.243 215.334 37.2604C216.41 37.2779 217.441 37.6901 218.232 38.4185C219.023 39.1469 219.519 40.1408 219.625 41.2109L220.473 49.1985C221.178 48.7553 221.996 48.5223 222.829 48.527H255.816L258.62 42.6364C259.022 41.8082 259.674 41.1275 260.484 40.6909C261.295 40.2542 262.222 40.0838 263.134 40.2037C264.047 40.3237 264.899 40.7279 265.569 41.3591C266.239 41.9903 266.693 42.8164 266.867 43.7203L267.456 46.9837L274.053 10.4032C274.251 9.36117 274.818 8.42562 275.651 7.76913C276.484 7.11263 277.526 6.77949 278.585 6.83116C279.645 6.88284 280.649 7.31583 281.414 8.05027C282.179 8.78471 282.653 9.77105 282.748 10.8273L286.282 54.4176L288.144 41.1049C288.284 40.0388 288.812 39.0615 289.626 38.3592C290.441 37.6568 291.485 37.2783 292.56 37.2958C293.635 37.3132 294.666 37.7254 295.457 38.4538C296.248 39.1823 296.744 40.1761 296.85 41.2463L297.71 49.2339C298.414 48.7875 299.232 48.5543 300.066 48.5624H499.474C500.05 48.5624 500.62 48.6757 501.151 48.896C501.683 49.1162 502.166 49.439 502.573 49.846C502.98 50.253 503.303 50.7361 503.523 51.2678C503.743 51.7995 503.857 52.3694 503.857 52.945C503.857 53.5205 503.743 54.0904 503.523 54.6221C503.303 55.1538 502.98 55.6369 502.573 56.0439C502.166 56.4509 501.683 56.7737 501.151 56.9939C500.62 57.2142 500.05 57.3275 499.474 57.3275H303.424L299.736 70.546C299.459 71.5279 298.849 72.3829 298.011 72.9652C297.173 73.5475 296.159 73.8209 295.142 73.7387C294.212 73.6682 293.331 73.2959 292.632 72.6784L289.522 94.8623C289.374 95.9063 288.854 96.8617 288.057 97.5524C287.261 98.243 286.241 98.6224 285.187 98.6205V98.6205Z" fill="#FA2A21"/>
</g>
<g opacity="0.05">
<path d="M285.187 97.9844H285.081C284.155 97.9585 283.272 97.5918 282.6 96.9548C281.928 96.3178 281.515 95.4553 281.44 94.5326L276.987 40.1154L271.202 72.2191C271.047 73.0864 270.591 73.8714 269.915 74.4359C269.238 75.0004 268.384 75.3084 267.503 75.3057V75.3057C266.623 75.3061 265.77 74.9973 265.094 74.4331C264.418 73.869 263.961 73.0854 263.804 72.2191L260.835 55.9257C260.188 56.4069 259.403 56.6671 258.597 56.6679H225.715L221.898 70.3459C221.698 71.0658 221.288 71.7097 220.72 72.1953C220.152 72.6809 219.452 72.9862 218.71 73.0722C217.968 73.1582 217.217 73.021 216.553 72.678C215.889 72.3351 215.342 71.8021 214.983 71.147L211.672 94.7093C211.555 95.6304 211.097 96.4741 210.388 97.0739C209.679 97.6737 208.771 97.986 207.843 97.9491C206.918 97.9231 206.035 97.5565 205.363 96.9195C204.691 96.2825 204.278 95.4199 204.203 94.4972L199.761 40.0801L193.977 72.1837C193.82 73.0501 193.363 73.8337 192.687 74.3978C192.011 74.9619 191.158 75.2707 190.278 75.2704V75.2704C189.396 75.2712 188.541 74.9628 187.863 74.3988C187.185 73.8349 186.726 73.051 186.567 72.1837L183.609 55.9257C182.958 56.407 182.169 56.6671 181.359 56.6679H148.49L144.661 70.3459C144.461 71.0658 144.051 71.7097 143.483 72.1953C142.915 72.6809 142.215 72.9862 141.473 73.0722C140.73 73.1582 139.979 73.021 139.315 72.678C138.651 72.3351 138.105 71.8021 137.745 71.147L134.447 94.7093C134.32 95.627 133.86 96.4657 133.153 97.0644C132.446 97.6632 131.543 97.9798 130.617 97.9535C129.691 97.9272 128.807 97.5599 128.136 96.922C127.464 96.2841 127.051 95.4206 126.977 94.4972L122.524 40.0801L116.74 72.1837C116.584 73.0511 116.129 73.836 115.452 74.4006C114.775 74.9651 113.921 75.2731 113.04 75.2704V75.2704C112.16 75.2707 111.307 74.9619 110.631 74.3978C109.955 73.8337 109.498 73.0501 109.341 72.1837L106.372 55.8904C105.725 56.3715 104.94 56.6318 104.134 56.6326H71.2526L67.4355 70.3459C67.2353 71.0658 66.825 71.7097 66.2571 72.1953C65.6892 72.6809 64.9894 72.9862 64.2471 73.0722C63.5049 73.1582 62.7538 73.021 62.0899 72.678C61.426 72.3351 60.8794 71.8021 60.5199 71.147L57.2094 94.7093C57.0843 95.6076 56.6385 96.4304 55.9543 97.0259C55.2701 97.6213 54.3936 97.9492 53.4866 97.9491H53.3806C52.4551 97.9231 51.5719 97.5565 50.9001 96.9195C50.2283 96.2825 49.8152 95.4199 49.7402 94.4972L45.2986 40.1154L39.5141 72.2191C39.3568 73.0854 38.9002 73.869 38.2241 74.4331C37.548 74.9973 36.6953 75.3061 35.8148 75.3057V75.3057C34.9343 75.3061 34.0816 74.9973 33.4055 74.4331C32.7294 73.869 32.2729 73.0854 32.1155 72.2191L29.1585 55.9257C28.5069 56.407 27.7183 56.6671 26.9083 56.6679H10.6503C9.65355 56.6679 8.69763 56.272 7.99283 55.5672C7.28804 54.8624 6.89209 53.9065 6.89209 52.9097C6.89209 51.913 7.28804 50.9571 7.99283 50.2523C8.69763 49.5475 9.65355 49.1516 10.6503 49.1516H24.5638L27.5327 42.8486C27.877 42.1397 28.4353 41.5569 29.129 41.1827C29.8226 40.8086 30.6163 40.6619 31.3978 40.7635C32.1793 40.8651 32.9092 41.2098 33.484 41.7489C34.0589 42.288 34.4498 42.9942 34.6014 43.7676L35.7795 50.4475L42.9896 10.4505C43.1507 9.55129 43.6337 8.74158 44.3484 8.1727C45.0631 7.60383 45.9606 7.31474 46.873 7.3595C47.7853 7.40425 48.6502 7.77978 49.3058 8.41587C49.9615 9.05196 50.363 9.90506 50.4353 10.8157L54.4526 60.0727L57.1034 41.2228C57.2285 40.3245 57.6743 39.5017 58.3585 38.9062C59.0427 38.3108 59.9192 37.9829 60.8263 37.983H60.8852C61.8031 37.9819 62.6897 38.3168 63.3777 38.9245C64.0657 39.5322 64.5075 40.3707 64.6198 41.2817L65.5976 50.4357C65.946 50.0328 66.3763 49.7088 66.8598 49.4853C67.3433 49.2618 67.8689 49.144 68.4015 49.1398H101.742L104.676 42.8486C105.02 42.1397 105.578 41.5569 106.272 41.1827C106.966 40.8086 107.759 40.6619 108.541 40.7635C109.322 40.8651 110.052 41.2098 110.627 41.7489C111.202 42.288 111.593 42.9942 111.744 43.7676L112.923 50.4475L120.133 10.4505C120.294 9.55129 120.777 8.74158 121.491 8.1727C122.206 7.60383 123.104 7.31474 124.016 7.3595C124.928 7.40425 125.793 7.77978 126.449 8.41587C127.104 9.05196 127.506 9.90506 127.578 10.8157L131.607 60.0727L134.258 41.2228C134.383 40.3245 134.829 39.5017 135.513 38.9062C136.198 38.3108 137.074 37.9829 137.981 37.983V37.983C138.898 37.9979 139.778 38.3475 140.455 38.9659C141.132 39.5843 141.559 40.4289 141.657 41.3406L142.646 50.5064C142.998 50.0978 143.433 49.7703 143.924 49.5465C144.414 49.3228 144.947 49.2081 145.486 49.2105H178.826L181.783 42.9075C182.128 42.1986 182.686 41.6158 183.38 41.2416C184.073 40.8675 184.867 40.7208 185.649 40.8224C186.43 40.924 187.16 41.2687 187.735 41.8078C188.31 42.3469 188.701 43.0531 188.852 43.8265L190.03 50.5064L197.24 10.5094C197.401 9.6102 197.884 8.80048 198.599 8.23161C199.314 7.66274 200.211 7.37365 201.124 7.4184C202.036 7.46315 202.901 7.83868 203.557 8.47477C204.212 9.11086 204.614 9.96396 204.686 10.8746L208.715 60.1316L211.354 41.2817C211.482 40.3844 211.928 39.563 212.612 38.968C213.295 38.373 214.171 38.0442 215.077 38.0419H215.419C216.337 38.054 217.22 38.4023 217.899 39.021C218.579 39.6397 219.008 40.4858 219.106 41.3996L220.084 50.5653C220.437 50.1585 220.873 49.8322 221.363 49.6087C221.853 49.3851 222.385 49.2694 222.923 49.2694H256.264L259.233 42.9664C259.577 42.2575 260.135 41.6747 260.829 41.3006C261.523 40.9264 262.316 40.7797 263.098 40.8813C263.879 40.9829 264.609 41.3276 265.184 41.8667C265.759 42.4058 266.15 43.112 266.301 43.8854L267.48 50.5653L274.678 10.5683C274.839 9.6691 275.322 8.85939 276.037 8.29051C276.751 7.72164 277.649 7.43255 278.561 7.47731C279.474 7.52206 280.338 7.89759 280.994 8.53368C281.65 9.16977 282.051 10.0229 282.123 10.9335L286.153 60.1905L288.803 41.3406C288.928 40.4423 289.374 39.6195 290.059 39.024C290.743 38.4286 291.619 38.1007 292.526 38.1008V38.1008C293.443 38.1157 294.323 38.4653 295 39.0837C295.677 39.7021 296.104 40.5467 296.202 41.4585L297.192 50.6242C297.543 50.2156 297.979 49.8881 298.469 49.6643C298.959 49.4406 299.492 49.3259 300.031 49.3283H499.474C500.471 49.3283 501.427 49.7242 502.131 50.429C502.836 51.1338 503.232 52.0897 503.232 53.0865C503.232 54.0832 502.836 55.0391 502.131 55.7439C501.427 56.4487 500.471 56.8446 499.474 56.8446H302.953L299.124 70.3459C298.923 71.0658 298.513 71.7097 297.945 72.1953C297.377 72.6809 296.678 72.9862 295.935 73.0722C295.193 73.1582 294.442 73.021 293.778 72.678C293.114 72.3351 292.568 71.8021 292.208 71.147L288.909 94.7093C288.79 95.6131 288.347 96.4428 287.662 97.045C286.978 97.6472 286.098 97.9809 285.187 97.9844V97.9844Z" fill="#FA2A21"/>
</g>
<g opacity="0.07">
<path d="M285.186 97.3601H285.092C284.321 97.3363 283.585 97.0286 283.026 96.496C282.468 95.9634 282.125 95.2432 282.065 94.4737L277.222 35.2851L270.59 72.1013C270.46 72.8252 270.079 73.4803 269.515 73.952C268.951 74.4237 268.238 74.6818 267.503 74.6813V74.6813C266.77 74.6801 266.06 74.4227 265.497 73.9538C264.933 73.4848 264.551 72.8338 264.416 72.113L261.235 54.5945C260.953 55.0381 260.563 55.4034 260.101 55.6567C259.64 55.9099 259.123 56.043 258.596 56.0435H225.244L221.297 70.1809C221.103 70.885 220.669 71.4992 220.071 71.9174C219.472 72.3357 218.746 72.5317 218.018 72.4716C217.291 72.4115 216.607 72.0991 216.085 71.5884C215.562 71.0777 215.235 70.4007 215.159 69.6743L214.9 67.2121L211.059 94.6622C210.957 95.4314 210.573 96.1353 209.982 96.6377C209.391 97.1401 208.634 97.4052 207.858 97.3817C207.083 97.3583 206.343 97.0479 205.783 96.5107C205.223 95.9735 204.883 95.2476 204.827 94.4737L199.997 35.2851L193.352 72.1013C193.223 72.8232 192.844 73.4768 192.282 73.9482C191.72 74.4196 191.011 74.6791 190.277 74.6813C189.536 74.6935 188.814 74.4421 188.24 73.9718C187.666 73.5015 187.278 72.8428 187.144 72.113L183.951 54.5945C183.67 55.0396 183.28 55.4061 182.819 55.6596C182.357 55.913 181.839 56.0451 181.312 56.0435H148.007L144.06 70.1809C143.86 70.8779 143.425 71.4841 142.829 71.8963C142.232 72.3085 141.512 72.5011 140.789 72.4414C140.067 72.3816 139.387 72.0732 138.866 71.5687C138.346 71.0641 138.016 70.3946 137.934 69.6743L137.663 67.2121L133.822 94.6622C133.72 95.4314 133.336 96.1353 132.745 96.6377C132.153 97.1401 131.397 97.4052 130.621 97.3817C129.845 97.3583 129.106 97.0479 128.546 96.5107C127.986 95.9735 127.646 95.2476 127.59 94.4737L122.76 35.2851L116.127 72.1013C115.997 72.8252 115.617 73.4803 115.052 73.952C114.488 74.4237 113.776 74.6818 113.04 74.6813V74.6813C112.306 74.6823 111.596 74.4258 111.032 73.9565C110.467 73.4872 110.086 72.8348 109.954 72.113L106.773 54.5945C106.489 55.0374 106.099 55.4021 105.638 55.6552C105.177 55.9084 104.66 56.0419 104.134 56.0435H70.7812L66.8346 70.1809C66.6406 70.885 66.2067 71.4992 65.6081 71.9174C65.0094 72.3357 64.2835 72.5317 63.5556 72.4716C62.8278 72.4115 62.1438 72.0991 61.6218 71.5884C61.0998 71.0777 60.7725 70.4007 60.6966 69.6743L60.4374 67.2121L56.585 94.6622C56.471 95.4204 56.0829 96.1105 55.4943 96.6019C54.9058 97.0933 54.1575 97.3519 53.3911 97.3286C52.6247 97.3054 51.8934 97.002 51.3356 96.4759C50.7779 95.9498 50.4324 95.2374 50.3645 94.4737L45.5224 35.2851L38.8896 72.1013C38.76 72.8232 38.3814 73.4768 37.8195 73.9482C37.2577 74.4196 36.5482 74.6791 35.8148 74.6813V74.6813C35.083 74.6796 34.3749 74.4218 33.8133 73.9527C33.2517 73.4836 32.8719 72.8328 32.7399 72.113L29.5472 54.5945C29.267 55.0379 28.8792 55.4034 28.4199 55.6567C27.9606 55.9101 27.4446 56.0432 26.92 56.0435H10.6502C9.8191 56.0435 9.02199 55.7134 8.43429 55.1257C7.84659 54.538 7.51648 53.7409 7.51648 52.9097C7.51648 52.0786 7.84659 51.2815 8.43429 50.6938C9.02199 50.1061 9.8191 49.776 10.6502 49.776H24.9054L28.0981 43.1078C28.3917 42.5244 28.8596 42.0467 29.4369 41.7412C30.0142 41.4357 30.6722 41.3175 31.3198 41.403C31.9673 41.4885 32.5722 41.7734 33.0505 42.2182C33.5287 42.6631 33.8566 43.2457 33.9887 43.8854L35.8148 53.9583L43.6375 10.5683C43.7709 9.81866 44.1728 9.14327 44.7679 8.66831C45.363 8.19334 46.1107 7.95129 46.8713 7.98737C47.6318 8.02345 48.3532 8.3352 48.9007 8.86436C49.4481 9.39353 49.7842 10.1039 49.8462 10.8628L54.3348 65.763L57.7631 41.2464C57.8675 40.4884 58.2457 39.7947 58.8263 39.2963C59.407 38.7979 60.1499 38.5291 60.915 38.5407C61.6801 38.5523 62.4146 38.8435 62.9798 39.3592C63.5451 39.875 63.9021 40.5798 63.9836 41.3407L65.1617 52.7802L65.3619 52.0615C65.5486 51.4049 65.9437 50.8268 66.4878 50.4145C67.0318 50.0022 67.6953 49.7781 68.3779 49.776H102.119L105.253 43.1078C105.542 42.5181 106.008 42.0339 106.587 41.7236C107.165 41.4133 107.827 41.2926 108.478 41.3786C109.129 41.4645 109.736 41.7527 110.215 42.2025C110.693 42.6523 111.018 43.241 111.143 43.8854L112.981 53.9583L120.804 10.5683C120.93 9.8164 121.33 9.13752 121.925 8.66151C122.521 8.18549 123.271 7.94577 124.032 7.9882C124.801 8.0142 125.534 8.32107 126.092 8.85078C126.65 9.38048 126.994 10.0963 127.06 10.8628L131.537 65.763L134.965 41.2464C135.069 40.4884 135.448 39.7947 136.028 39.2963C136.609 38.7979 137.352 38.5291 138.117 38.5407C138.882 38.5523 139.617 38.8435 140.182 39.3592C140.747 39.875 141.104 40.5798 141.185 41.3407L142.364 52.7802L142.552 52.0615C142.741 51.4039 143.138 50.8255 143.684 50.4133C144.23 50.0011 144.896 49.7774 145.58 49.776H179.368L182.502 43.1078C182.795 42.5244 183.263 42.0467 183.841 41.7412C184.418 41.4357 185.076 41.3175 185.724 41.403C186.371 41.4885 186.976 41.7734 187.454 42.2182C187.933 42.6631 188.26 43.2457 188.393 43.8854L190.219 53.9583L198.041 10.5683C198.175 9.81866 198.577 9.14327 199.172 8.66831C199.767 8.19334 200.515 7.95129 201.275 7.98737C202.036 8.02345 202.757 8.3352 203.304 8.86436C203.852 9.39353 204.188 10.1039 204.25 10.8628L208.739 65.763L212.167 41.2464C212.271 40.4884 212.65 39.7947 213.23 39.2963C213.811 38.7979 214.554 38.5291 215.319 38.5407C216.084 38.5523 216.818 38.8435 217.384 39.3592C217.949 39.875 218.306 40.5798 218.387 41.3407L219.565 52.7802L219.766 52.0615C219.952 51.4049 220.348 50.8268 220.892 50.4145C221.436 50.0022 222.099 49.7781 222.782 49.776H256.653L259.786 43.1078C260.075 42.5181 260.542 42.0339 261.12 41.7236C261.699 41.4133 262.36 41.2926 263.011 41.3786C263.662 41.4645 264.27 41.7527 264.748 42.2025C265.226 42.6523 265.551 43.241 265.677 43.8854L267.515 53.9583L275.337 10.5683C275.464 9.8164 275.863 9.13752 276.459 8.66151C277.054 8.18549 277.804 7.94577 278.565 7.9882C279.326 8.02538 280.047 8.33722 280.596 8.86586C281.144 9.3945 281.481 10.104 281.546 10.8628L286.023 65.7748L289.463 41.2464C289.577 40.4978 289.959 39.8158 290.537 39.3268C291.115 38.8377 291.851 38.5746 292.609 38.5861C293.366 38.5976 294.093 38.8829 294.656 39.3893C295.219 39.8957 295.58 40.5889 295.672 41.3407L296.85 52.7802L297.05 52.0615C297.235 51.4039 297.63 50.8247 298.174 50.4121C298.719 49.9995 299.383 49.7761 300.066 49.776H499.474C500.305 49.776 501.102 50.1061 501.69 50.6938C502.278 51.2815 502.608 52.0786 502.608 52.9097C502.608 53.7409 502.278 54.538 501.69 55.1257C501.102 55.7134 500.305 56.0435 499.474 56.0435H302.481L298.523 70.1809C298.323 70.8779 297.888 71.4841 297.292 71.8963C296.695 72.3085 295.974 72.5011 295.252 72.4414C294.529 72.3816 293.85 72.0732 293.329 71.5687C292.809 71.0641 292.479 70.3946 292.397 69.6743L292.126 67.2121L288.285 94.6622C288.18 95.4096 287.809 96.0941 287.239 96.5897C286.67 97.0853 285.941 97.3589 285.186 97.3601V97.3601Z" fill="#FA2A21"/>
</g>
<g opacity="0.09">
<path d="M285.187 96.7354H285.116C284.49 96.7159 283.895 96.4635 283.446 96.0276C282.997 95.5917 282.727 95.0038 282.689 94.3791L277.458 30.4074L269.965 71.9949C269.863 72.5732 269.56 73.0969 269.11 73.474C268.659 73.851 268.09 74.0573 267.503 74.0566V74.0566C266.916 74.0573 266.347 73.851 265.897 73.474C265.446 73.0969 265.143 72.5732 265.041 71.9949L261.507 52.6032L260.859 53.9815C260.656 54.4104 260.336 54.7731 259.936 55.0275C259.535 55.2818 259.071 55.4175 258.597 55.4188H224.773L220.685 70.0039C220.535 70.5707 220.191 71.0667 219.712 71.4051C219.233 71.7435 218.651 71.9028 218.067 71.855C217.482 71.8073 216.934 71.5555 216.516 71.1439C216.099 70.7322 215.84 70.1869 215.784 69.6034L214.983 62.0988L210.435 94.5676C210.353 95.1683 210.055 95.7188 209.598 96.1173C209.142 96.5157 208.556 96.7353 207.949 96.7354H207.879C207.255 96.7107 206.662 96.4566 206.214 96.0217C205.766 95.5869 205.495 95.0019 205.452 94.3791L200.221 30.4074L192.74 71.9478C192.637 72.5261 192.334 73.0498 191.884 73.4269C191.434 73.8039 190.865 74.0102 190.278 74.0095V74.0095C189.69 74.0084 189.12 73.8017 188.669 73.4252C188.217 73.0487 187.911 72.5261 187.804 71.9478L184.269 52.556L183.61 53.9815C183.405 54.4113 183.083 54.7744 182.68 55.0288C182.278 55.2831 181.812 55.4184 181.336 55.4188H147.536L143.459 70.0039C143.303 70.5662 142.956 71.0566 142.478 71.3906C141.999 71.7245 141.419 71.8813 140.837 71.8339C140.256 71.7865 139.709 71.5378 139.291 71.1307C138.873 70.7236 138.61 70.1835 138.547 69.6034L137.746 62.0988L133.198 94.5676C133.12 95.1683 132.826 95.7201 132.371 96.1192C131.915 96.5184 131.33 96.7375 130.724 96.7354H130.594C129.981 96.699 129.403 96.439 128.969 96.0048C128.534 95.5706 128.274 94.9922 128.238 94.3791L123.007 30.4074L115.514 71.9478C115.412 72.5261 115.109 73.0498 114.659 73.4269C114.208 73.8039 113.639 74.0102 113.052 74.0095V74.0095C112.468 74.0178 111.899 73.8207 111.444 73.4526C110.99 73.0844 110.679 72.5686 110.566 71.9949L107.032 52.6032L106.384 53.9815C106.181 54.4104 105.861 54.7731 105.461 55.0275C105.061 55.2818 104.596 55.4175 104.122 55.4188H70.3102L66.2221 70.0039C66.0723 70.5707 65.7279 71.0667 65.2493 71.4051C64.7706 71.7435 64.1882 71.9028 63.604 71.855C63.0197 71.8073 62.4709 71.5555 62.0535 71.1439C61.6362 70.7322 61.3769 70.1869 61.3211 69.6034L60.52 62.0988L55.9725 94.5558C55.8899 95.1565 55.5927 95.707 55.1358 96.1055C54.6788 96.504 54.093 96.7235 53.4866 96.7236H53.416C52.7922 96.6989 52.1995 96.4448 51.7515 96.0099C51.3036 95.5751 51.0321 94.9901 50.9891 94.3673L45.77 30.4546L38.289 71.9949C38.1865 72.5732 37.8834 73.0969 37.4331 73.474C36.9828 73.851 36.414 74.0573 35.8267 74.0566V74.0566C35.2406 74.0528 34.6742 73.8448 34.2248 73.4685C33.7755 73.0923 33.4712 72.5712 33.3644 71.9949L29.8301 52.6032L29.1821 53.9815C28.9783 54.4095 28.6581 54.7714 28.258 55.0256C27.8579 55.2799 27.3942 55.4162 26.9202 55.4188H10.6504C9.98485 55.4188 9.34655 55.1545 8.87595 54.6839C8.40535 54.2133 8.14099 53.575 8.14099 52.9095C8.14099 52.2439 8.40535 51.6057 8.87595 51.1351C9.34655 50.6645 9.98485 50.4001 10.6504 50.4001H25.3061L28.6049 43.3314C28.8341 42.8511 29.2094 42.4557 29.6771 42.2017C30.1448 41.9478 30.6809 41.8483 31.2085 41.9176C31.7333 41.9845 32.2231 42.2171 32.6066 42.5815C32.9901 42.946 33.2474 43.4233 33.3409 43.944L35.8031 57.4334L44.2267 10.6269C44.3345 10.0264 44.6573 9.48569 45.1349 9.10599C45.6124 8.72629 46.212 8.53358 46.8214 8.5639C47.4307 8.59422 48.0081 8.8455 48.4456 9.27074C48.8831 9.69598 49.1507 10.266 49.1983 10.8743L54.1464 71.4177L58.3641 41.2815C58.4563 40.682 58.7626 40.1362 59.2262 39.7451C59.6898 39.3541 60.2794 39.1441 60.8858 39.1542C61.4923 39.1642 62.0746 39.3936 62.525 39.7999C62.9754 40.2061 63.2633 40.7617 63.3357 41.3639L64.9144 56.0432L65.9864 52.1908C66.1331 51.6628 66.4486 51.1973 66.8847 50.8654C67.3208 50.5335 67.8536 50.3535 68.4016 50.3529H102.567L105.866 43.2842C106.097 42.8137 106.47 42.4275 106.932 42.1796C107.394 41.9318 107.922 41.8349 108.441 41.9024C108.961 41.97 109.447 42.1987 109.83 42.5564C110.213 42.9141 110.475 43.3829 110.578 43.8969L113.029 57.3863L121.464 10.5798C121.579 9.98334 121.903 9.44768 122.379 9.06957C122.854 8.69147 123.449 8.49584 124.056 8.51806C124.669 8.55446 125.247 8.81439 125.681 9.24863C126.116 9.68286 126.376 10.2613 126.412 10.8743L131.36 71.4059L135.578 41.2815C135.67 40.682 135.976 40.1362 136.44 39.7451C136.904 39.3541 137.493 39.1441 138.1 39.1542C138.706 39.1642 139.288 39.3936 139.739 39.7999C140.189 40.2061 140.477 40.7617 140.549 41.3639L142.14 56.0904L143.224 52.2379C143.366 51.7185 143.672 51.2589 144.097 50.9277C144.521 50.5965 145.042 50.4115 145.58 50.4001H179.745L183.044 43.3314C183.273 42.8511 183.649 42.4557 184.116 42.2017C184.584 41.9478 185.12 41.8483 185.648 41.9176C186.172 41.9845 186.662 42.2171 187.046 42.5815C187.429 42.946 187.686 43.4233 187.78 43.944L190.242 57.4334L198.678 10.6269C198.774 10.0188 199.093 9.46796 199.571 9.08008C200.049 8.69219 200.654 8.49463 201.269 8.5253C201.884 8.55598 202.466 8.81273 202.903 9.24628C203.34 9.67983 203.602 10.2596 203.637 10.8743L208.586 71.4059L212.803 41.2815C212.883 40.6829 213.179 40.134 213.634 39.7372C214.089 39.3405 214.673 39.123 215.277 39.1255C215.888 39.1363 216.474 39.3696 216.925 39.7817C217.377 40.1939 217.662 40.7564 217.728 41.3639L219.306 56.0432L220.379 52.1908C220.527 51.6638 220.843 51.1993 221.279 50.8678C221.714 50.5362 222.246 50.3555 222.794 50.3529H256.959L260.258 43.2842C260.489 42.8137 260.862 42.4275 261.324 42.1796C261.786 41.9318 262.314 41.8349 262.833 41.9024C263.353 41.97 263.839 42.1987 264.222 42.5564C264.605 42.9141 264.867 43.3829 264.97 43.8969L267.421 57.3863L275.856 10.5798C275.964 9.97925 276.287 9.43857 276.764 9.05886C277.242 8.67916 277.841 8.48645 278.451 8.51678C279.06 8.5471 279.637 8.79838 280.075 9.22362C280.512 9.64885 280.78 10.2189 280.828 10.8272L285.835 71.5237L290.052 41.3875C290.137 40.789 290.436 40.2413 290.892 39.8452C291.349 39.4491 291.934 39.2312 292.538 39.2315V39.2315C293.15 39.242 293.738 39.4749 294.191 39.8868C294.644 40.2987 294.932 40.8615 295 41.4699L296.567 56.1493L297.651 52.2968C297.793 51.7774 298.099 51.3179 298.524 50.9867C298.949 50.6555 299.469 50.4704 300.007 50.459H499.474C500.14 50.459 500.778 50.7234 501.249 51.194C501.719 51.6646 501.983 52.3028 501.983 52.9684C501.983 53.6339 501.719 54.2722 501.249 54.7428C500.778 55.2134 500.14 55.4777 499.474 55.4777H301.998L297.887 70.0039C297.737 70.5707 297.393 71.0667 296.914 71.4051C296.435 71.7435 295.853 71.9028 295.269 71.855C294.684 71.8073 294.136 71.5555 293.718 71.1439C293.301 70.7322 293.042 70.1869 292.986 69.6034L292.208 62.0988L287.661 94.5558C287.586 95.1587 287.293 95.7133 286.837 96.1148C286.381 96.5164 285.794 96.7371 285.187 96.7354V96.7354Z" fill="#FA2A21"/>
</g>
<g opacity="0.15">
<path d="M285.186 96.0994H285.127C284.666 96.089 284.224 95.9072 283.889 95.5893C283.553 95.2714 283.348 94.8401 283.313 94.3793L277.694 25.5774L269.353 71.842C269.273 72.2758 269.045 72.6684 268.707 72.9522C268.37 73.2361 267.944 73.3934 267.503 73.3971C267.064 73.3939 266.639 73.2382 266.302 72.9568C265.964 72.6753 265.735 72.2854 265.653 71.8538L261.777 50.5299L260.293 53.6755C260.143 53.9989 259.903 54.2727 259.603 54.4647C259.302 54.6567 258.953 54.7589 258.596 54.7593H224.29L220.131 69.8392C220.018 70.2634 219.759 70.6337 219.398 70.884C219.038 71.1344 218.6 71.2484 218.163 71.2058C217.728 71.1697 217.32 70.9828 217.008 70.6774C216.696 70.3719 216.5 69.9671 216.455 69.5329L215.065 56.9977L209.811 94.4854C209.737 94.9356 209.502 95.3439 209.15 95.6343C208.798 95.9247 208.353 96.0776 207.897 96.0647C207.441 96.0518 207.005 95.8738 206.67 95.5639C206.335 95.254 206.124 94.8331 206.076 94.3793L200.456 25.5774L192.127 71.842C192.048 72.2758 191.82 72.6684 191.482 72.9522C191.144 73.2361 190.718 73.3934 190.277 73.3971C189.836 73.3966 189.409 73.2422 189.069 72.9605C188.729 72.6788 188.498 72.2874 188.416 71.8538L184.54 50.5299L183.067 53.6755C182.914 53.9989 182.672 54.2724 182.37 54.4642C182.067 54.656 181.717 54.7583 181.359 54.7593H147.088L142.882 69.8039C142.767 70.2268 142.507 70.5957 142.147 70.8457C141.787 71.0957 141.351 71.2107 140.914 71.1705C140.479 71.1326 140.07 70.9454 139.756 70.6405C139.443 70.3357 139.244 69.9319 139.194 69.4975L137.851 56.9624L132.609 94.45C132.535 94.9003 132.3 95.3085 131.948 95.599C131.596 95.8894 131.151 96.0423 130.695 96.0294C130.239 96.0164 129.803 95.8385 129.468 95.5285C129.133 95.2186 128.922 94.7977 128.874 94.344L123.231 25.5774L114.89 71.842C114.81 72.2758 114.582 72.6684 114.245 72.9522C113.907 73.2361 113.481 73.3934 113.04 73.3971C112.601 73.3939 112.176 73.2382 111.839 72.9568C111.501 72.6753 111.272 72.2854 111.191 71.8538L107.314 50.5299L105.854 53.7108C105.703 54.0342 105.464 54.308 105.163 54.5C104.863 54.692 104.514 54.7942 104.157 54.7947H69.8268L65.6209 69.8392C65.5082 70.2644 65.2494 70.6363 64.8899 70.8898C64.5304 71.1433 64.0932 71.2623 63.6548 71.2257C63.2164 71.1892 62.8049 70.9996 62.4924 70.69C62.1798 70.3805 61.9861 69.9709 61.9452 69.5329L60.5904 56.9977L55.3478 94.4854C55.274 94.9356 55.0394 95.3439 54.6875 95.6343C54.3356 95.9247 53.8903 96.0776 53.4342 96.0647C52.9781 96.0518 52.5422 95.8738 52.2073 95.5639C51.8724 95.254 51.6613 94.8331 51.6132 94.3793L45.9936 25.5774L37.6643 71.842C37.5849 72.2758 37.3567 72.6684 37.0191 72.9522C36.6816 73.2361 36.2556 73.3934 35.8146 73.3971C35.3753 73.3939 34.9507 73.2382 34.6134 72.9568C34.276 72.6753 34.0468 72.2854 33.965 71.8538L30.089 50.5299L28.6164 53.6755C28.4629 53.9989 28.2211 54.2724 27.9188 54.4642C27.6165 54.656 27.2661 54.7583 26.9081 54.7593H10.6501C10.1502 54.7593 9.67074 54.5607 9.31723 54.2072C8.96373 53.8537 8.76514 53.3743 8.76514 52.8743C8.76514 52.3744 8.96373 51.895 9.31723 51.5415C9.67074 51.1879 10.1502 50.9894 10.6501 50.9894H25.7418L29.2172 43.6143C29.3831 43.2506 29.6617 42.9499 30.0118 42.7568C30.3619 42.5637 30.7649 42.4885 31.1611 42.5423C31.5557 42.5956 31.9233 42.7725 32.2111 43.0477C32.4989 43.3228 32.6923 43.682 32.7633 44.0738L35.8382 60.9562L44.8861 10.7567C44.975 10.3148 45.2193 9.91935 45.5748 9.64211C45.9302 9.36486 46.3732 9.22417 46.8235 9.24555C47.2738 9.26692 47.7014 9.44894 48.029 9.7586C48.3566 10.0683 48.5623 10.4851 48.6089 10.9334L54.0165 77.1553L59.0117 41.423C59.0742 40.9733 59.2968 40.5612 59.6388 40.2625C59.9808 39.9638 60.4191 39.7986 60.8732 39.7973C61.3314 39.8086 61.7699 39.9855 62.1078 40.2952C62.4457 40.6049 62.6599 41.0265 62.711 41.482L64.6196 59.4011L66.5752 52.4031C66.6875 52.0078 66.9252 51.6597 67.2524 51.4111C67.5796 51.1625 67.9786 51.0269 68.3896 51.0247H102.92L106.454 43.6497C106.629 43.2984 106.909 43.0103 107.255 42.8256C107.601 42.6409 107.996 42.5689 108.385 42.6194C108.774 42.67 109.138 42.8407 109.426 43.1078C109.713 43.3748 109.91 43.7249 109.989 44.1092L113.052 60.9916L122.1 10.792C122.182 10.343 122.424 9.93912 122.782 9.65528C123.139 9.37145 123.588 9.22698 124.044 9.24871C124.5 9.26764 124.932 9.45326 125.26 9.77034C125.588 10.0874 125.788 10.5139 125.823 10.9688L131.23 77.1435L136.237 41.423C136.3 40.9733 136.522 40.5612 136.864 40.2625C137.206 39.9638 137.645 39.7986 138.099 39.7973V39.7973C138.558 39.8083 138.998 39.9848 139.338 40.2943C139.678 40.6038 139.895 41.0255 139.948 41.482L141.869 59.4011L143.824 52.4031C143.935 52.0068 144.172 51.6576 144.5 51.4087C144.827 51.1599 145.227 51.025 145.639 51.0247H180.169L183.609 43.6497C183.779 43.292 184.057 42.9971 184.405 42.8075C184.752 42.6179 185.151 42.5432 185.543 42.5943C185.936 42.6453 186.302 42.8194 186.59 43.0916C186.877 43.3637 187.071 43.72 187.144 44.1092L190.218 60.9916L199.266 10.792C199.35 10.3302 199.603 9.916 199.975 9.63057C200.348 9.34514 200.813 9.20898 201.281 9.24871C201.737 9.26764 202.17 9.45326 202.498 9.77034C202.826 10.0874 203.026 10.5139 203.06 10.9688L208.467 77.1435L213.463 41.423C213.525 40.9733 213.748 40.5612 214.09 40.2625C214.432 39.9638 214.87 39.7986 215.324 39.7973V39.7973C215.783 39.8061 216.223 39.9822 216.561 40.2924C216.9 40.6025 217.113 41.0255 217.162 41.482L219.094 59.4011L221.038 52.4031C221.15 52.0078 221.388 51.6597 221.715 51.4111C222.042 51.1625 222.441 51.0269 222.852 51.0247H257.383L260.917 43.6497C261.092 43.2984 261.372 43.0103 261.718 42.8256C262.064 42.6409 262.459 42.5689 262.848 42.6194C263.237 42.67 263.601 42.8407 263.888 43.1078C264.176 43.3748 264.373 43.7249 264.452 44.1092L267.515 60.9916L276.563 10.792C276.645 10.343 276.887 9.93912 277.245 9.65528C277.602 9.37145 278.051 9.22698 278.506 9.24871C278.95 9.28412 279.366 9.47703 279.679 9.79253C279.992 10.108 280.182 10.5253 280.215 10.9688L285.622 77.1553L290.629 41.423C290.692 40.9733 290.914 40.5612 291.256 40.2625C291.598 39.9638 292.037 39.7986 292.491 39.7973V39.7973C292.949 39.8086 293.387 39.9855 293.725 40.2952C294.063 40.6049 294.277 41.0265 294.329 41.482L296.249 59.4011L298.205 52.4031C298.315 52.0068 298.552 51.6576 298.88 51.4087C299.207 51.1599 299.607 51.025 300.019 51.0247H499.474C499.974 51.0247 500.453 51.2233 500.807 51.5768C501.16 51.9303 501.359 52.4097 501.359 52.9097C501.359 53.4096 501.16 53.8891 500.807 54.2426C500.453 54.5961 499.974 54.7947 499.474 54.7947H301.55L297.345 69.8392C297.23 70.2621 296.97 70.6311 296.61 70.881C296.25 71.131 295.813 71.246 295.377 71.2058C294.941 71.1679 294.532 70.9807 294.219 70.6759C293.906 70.371 293.707 69.9673 293.657 69.5329L292.314 56.9977L287.071 94.4854C287.008 94.9381 286.782 95.352 286.435 95.6493C286.087 95.9466 285.643 96.1067 285.186 96.0994Z" fill="#FA2A21"/>
</g>
<path d="M285.186 95.4748C284.874 95.4748 284.574 95.3506 284.353 95.1297C284.132 94.9088 284.008 94.6091 284.008 94.2967L278 20.7469L268.811 71.7357C268.76 72.015 268.616 72.2688 268.402 72.4551C268.187 72.6414 267.916 72.7492 267.633 72.7607V72.7607C267.339 72.7604 267.055 72.6579 266.83 72.4708C266.604 72.2837 266.45 72.0238 266.396 71.7357L262.166 48.4915L259.81 53.4043C259.707 53.6275 259.54 53.8151 259.33 53.9431C259.12 54.0711 258.877 54.1337 258.632 54.1229H223.818L219.483 69.6387C219.403 69.9172 219.229 70.1595 218.99 70.3247C218.752 70.49 218.464 70.5681 218.175 70.5458C217.879 70.5309 217.599 70.4114 217.383 70.2085C217.167 70.0057 217.03 69.7327 216.997 69.4384L215.112 51.8609L209.222 94.3673C209.176 94.6721 209.02 94.9495 208.783 95.1471C208.546 95.3446 208.246 95.4486 207.937 95.4394C207.63 95.4225 207.341 95.2929 207.123 95.0756C206.906 94.8582 206.776 94.5683 206.759 94.2613L200.751 20.7116L191.562 71.7004C191.511 71.9797 191.367 72.2334 191.153 72.4197C190.938 72.606 190.667 72.7138 190.383 72.7254V72.7254C190.099 72.716 189.827 72.609 189.612 72.4223C189.398 72.2356 189.254 71.9806 189.205 71.7004L184.787 48.5269L182.431 53.4396C182.335 53.6681 182.17 53.8605 181.958 53.9895C181.747 54.1185 181.5 54.1776 181.253 54.1583H146.581L142.246 69.674C142.171 69.9574 141.999 70.2054 141.759 70.3746C141.52 70.5438 141.229 70.6235 140.937 70.5996C140.645 70.5757 140.37 70.4498 140.161 70.244C139.953 70.0382 139.823 69.7655 139.795 69.4738L137.91 51.8963L131.961 94.4027C131.917 94.7065 131.764 94.9837 131.529 95.1815C131.294 95.3792 130.995 95.4836 130.688 95.4748C130.376 95.4748 130.076 95.3506 129.855 95.1297C129.634 94.9088 129.51 94.6091 129.51 94.2967L123.525 20.7822L114.336 71.7711C114.285 72.0504 114.141 72.3041 113.927 72.4904C113.713 72.6767 113.442 72.7845 113.158 72.796V72.796C112.864 72.798 112.579 72.6963 112.353 72.5089C112.127 72.3214 111.974 72.0602 111.921 71.7711L107.692 48.5269L105.335 53.4396C105.233 53.6629 105.066 53.8505 104.856 53.9785C104.646 54.1065 104.403 54.1691 104.157 54.1583H69.3321L64.9966 69.674C64.9162 69.9526 64.7422 70.1948 64.504 70.3601C64.2658 70.5253 63.978 70.6034 63.689 70.5812C63.3932 70.5663 63.1123 70.4467 62.8965 70.2439C62.6807 70.041 62.544 69.7681 62.5108 69.4738L60.614 51.8963L54.7234 94.4027C54.6858 94.7115 54.5342 94.9952 54.2983 95.1981C54.0625 95.4011 53.7593 95.5086 53.4483 95.4998C53.1373 95.491 52.8408 95.3663 52.6169 95.1503C52.3929 94.9343 52.2577 94.6425 52.2376 94.332L46.2293 20.7822L37.04 71.7711C36.9893 72.0504 36.845 72.3041 36.6308 72.4904C36.4167 72.6767 36.1455 72.7845 35.8619 72.796V72.796C35.5776 72.7867 35.3052 72.6796 35.0906 72.4929C34.876 72.3063 34.7324 72.0513 34.6838 71.7711L30.4543 48.5269L28.0981 53.4396C28.0022 53.6681 27.8367 53.8605 27.6252 53.9895C27.4137 54.1185 27.1669 54.1776 26.9199 54.1583H10.6502C10.319 54.1583 10.0014 54.0267 9.76716 53.7925C9.53296 53.5583 9.40137 53.2407 9.40137 52.9094C9.40137 52.5782 9.53296 52.2606 9.76716 52.0264C10.0014 51.7922 10.319 51.6606 10.6502 51.6606H26.107L29.7474 43.9086C29.8613 43.6701 30.0479 43.4738 30.2805 43.3481C30.513 43.2224 30.7795 43.1737 31.0415 43.2091C31.3034 43.2445 31.5474 43.3621 31.7382 43.5449C31.9291 43.7278 32.0571 43.9665 32.1037 44.2267L35.7912 64.5139L45.4517 10.8979C45.5136 10.605 45.6776 10.3437 45.9145 10.1607C46.1514 9.97779 46.4457 9.88511 46.7447 9.89928C47.0437 9.91345 47.3279 10.0336 47.5465 10.2381C47.765 10.4426 47.9036 10.7183 47.9376 11.0157L53.8281 82.8807L59.6126 41.5406C59.6645 41.2418 59.8186 40.9703 60.0485 40.7726C60.2785 40.5749 60.57 40.4632 60.8732 40.4568C61.1793 40.4762 61.4678 40.6066 61.6846 40.8235C61.9015 41.0403 62.0319 41.3288 62.0514 41.6349L64.3251 62.841L67.1643 52.6974C67.2265 52.4338 67.3777 52.1997 67.5923 52.0345C67.8068 51.8693 68.0717 51.783 68.3425 51.7902H103.274L107.032 43.9086C107.148 43.6707 107.335 43.4748 107.567 43.3481C107.799 43.2214 108.065 43.1702 108.328 43.2018C108.592 43.2356 108.84 43.3534 109.032 43.5379C109.225 43.7223 109.354 43.9637 109.4 44.2267L113.087 64.5139L122.76 10.8979C122.816 10.5996 122.978 10.3317 123.216 10.1434C123.454 9.95516 123.752 9.85909 124.056 9.87289C124.368 9.87289 124.668 9.99701 124.889 10.218C125.11 10.4389 125.234 10.7385 125.234 11.051L131.124 82.9161L136.909 41.576C136.921 41.4211 136.963 41.2701 137.034 41.1316C137.104 40.9932 137.201 40.8701 137.32 40.7693C137.438 40.6686 137.575 40.5922 137.723 40.5447C137.871 40.4971 138.026 40.4792 138.181 40.4921C138.487 40.5116 138.776 40.6419 138.993 40.8588C139.21 41.0757 139.34 41.3642 139.359 41.6702L141.633 62.8763L144.461 52.7327C144.534 52.4752 144.688 52.248 144.9 52.0847C145.112 51.9214 145.371 51.8305 145.639 51.8256H180.57L184.21 44.0736C184.324 43.835 184.511 43.6388 184.743 43.5131C184.976 43.3874 185.242 43.3387 185.504 43.374C185.766 43.4094 186.01 43.527 186.201 43.7099C186.392 43.8927 186.52 44.1315 186.566 44.3917L190.254 64.6788L199.914 11.0628C199.971 10.7645 200.133 10.4967 200.371 10.3084C200.609 10.1201 200.907 10.024 201.21 10.0378C201.517 10.0548 201.807 10.1843 202.025 10.4017C202.242 10.6191 202.372 10.909 202.388 11.2159L208.279 83.081L214.064 41.7409C214.102 41.4509 214.241 41.1835 214.456 40.9854C214.671 40.7873 214.949 40.6711 215.242 40.6571V40.6571C215.548 40.6765 215.836 40.8069 216.053 41.0237C216.27 41.2406 216.4 41.5291 216.42 41.8352L218.694 63.0412L221.533 52.8977C221.595 52.6341 221.746 52.4 221.961 52.2348C222.175 52.0695 222.44 51.9833 222.711 51.9905H257.831L261.471 44.2385C261.587 44.0006 261.774 43.8046 262.006 43.6779C262.238 43.5512 262.504 43.5001 262.767 43.5316C263.032 43.5655 263.279 43.6833 263.472 43.8677C263.665 44.0522 263.793 44.2936 263.839 44.5566L267.538 64.8438L277.199 11.2277C277.252 10.9291 277.412 10.66 277.649 10.4708C277.887 10.2817 278.185 10.1853 278.488 10.1997C278.791 10.2142 279.078 10.3384 279.296 10.5493C279.514 10.7601 279.648 11.0432 279.673 11.3455L285.563 83.2106L291.348 41.8705C291.4 41.5717 291.554 41.3002 291.784 41.1025C292.014 40.9048 292.305 40.7931 292.609 40.7866C292.915 40.8061 293.203 40.9365 293.42 41.1533C293.637 41.3702 293.767 41.6587 293.787 41.9648L296.06 63.1708L298.888 53.0273C298.961 52.7698 299.115 52.5426 299.327 52.3792C299.539 52.2159 299.798 52.1251 300.066 52.1201H499.474C499.805 52.1201 500.123 52.2517 500.357 52.4859C500.591 52.7201 500.723 53.0377 500.723 53.3689C500.723 53.7001 500.591 54.0178 500.357 54.2519C500.123 54.4861 499.805 54.6177 499.474 54.6177H301.044L296.708 69.674C296.634 69.9574 296.461 70.2054 296.222 70.3746C295.983 70.5438 295.691 70.6235 295.399 70.5996C295.107 70.5757 294.833 70.4498 294.624 70.244C294.415 70.0382 294.286 69.7655 294.258 69.4738L292.373 51.8963L286.423 94.4027C286.381 94.7004 286.232 94.9727 286.005 95.1697C285.778 95.3666 285.487 95.475 285.186 95.4748V95.4748Z" fill="#FA2A21"/>
<path d="M285.186 94.6383C285.084 94.6361 284.985 94.5966 284.909 94.5273C284.834 94.458 284.785 94.3635 284.774 94.2613L278.247 14.338L267.927 71.6179C267.898 71.7039 267.842 71.7785 267.768 71.8313C267.694 71.8841 267.605 71.9125 267.515 71.9125C267.424 71.9125 267.335 71.8841 267.261 71.8313C267.187 71.7785 267.132 71.7039 267.102 71.6179L262.39 45.8054L259.009 53.0862C258.976 53.1583 258.923 53.2192 258.856 53.2611C258.789 53.303 258.711 53.3242 258.632 53.3218H223.182L218.682 69.4502C218.65 69.5402 218.591 69.6181 218.513 69.673C218.435 69.7279 218.341 69.7571 218.246 69.7565C218.148 69.7467 218.056 69.7041 217.986 69.6357C217.915 69.5673 217.87 69.477 217.857 69.3795L215.253 45.0868L208.35 94.2849C208.333 94.3847 208.281 94.4752 208.203 94.5401C208.125 94.6049 208.027 94.6397 207.926 94.6383C207.823 94.6385 207.725 94.5995 207.65 94.5294C207.576 94.4593 207.531 94.3634 207.525 94.2613L200.998 14.338L190.678 71.6179C190.652 71.7055 190.598 71.7822 190.525 71.8368C190.452 71.8914 190.363 71.9209 190.272 71.9209C190.18 71.9209 190.091 71.8914 190.018 71.8368C189.945 71.7822 189.891 71.7055 189.865 71.6179L185.153 45.8054L181.724 53.0862C181.692 53.1583 181.639 53.2192 181.571 53.2611C181.504 53.303 181.426 53.3242 181.347 53.3218H145.91L141.397 69.4502C141.375 69.5465 141.318 69.6315 141.238 69.6895C141.157 69.7475 141.059 69.7747 140.96 69.7661C140.862 69.7575 140.77 69.7137 140.701 69.6428C140.631 69.5718 140.59 69.4783 140.584 69.3795L138.016 45.0868L131.136 94.2849C131.122 94.3858 131.07 94.4778 130.992 94.5431C130.914 94.6083 130.814 94.6423 130.712 94.6383C130.609 94.6361 130.511 94.5966 130.435 94.5273C130.359 94.458 130.311 94.3635 130.3 94.2613L123.773 14.338L113.452 71.6179C113.423 71.7039 113.367 71.7785 113.293 71.8313C113.22 71.8841 113.131 71.9125 113.04 71.9125C112.949 71.9125 112.861 71.8841 112.787 71.8313C112.713 71.7785 112.657 71.7039 112.628 71.6179L107.915 45.8054L104.499 53.0862C104.465 53.1574 104.412 53.2174 104.345 53.2591C104.278 53.3009 104.201 53.3227 104.122 53.3218H68.7194L64.219 69.4502C64.1887 69.5412 64.1301 69.6201 64.0516 69.6753C63.9731 69.7304 63.879 69.7589 63.7831 69.7565C63.6853 69.7467 63.5937 69.7041 63.5231 69.6357C63.4525 69.5673 63.4072 69.477 63.3944 69.3795L60.7907 45.0868L53.8988 94.2849C53.8819 94.3847 53.8299 94.4752 53.7521 94.5401C53.6743 94.6049 53.5758 94.6397 53.4746 94.6383C53.3723 94.6385 53.2739 94.5995 53.1994 94.5294C53.1249 94.4593 53.0801 94.3634 53.0741 94.2613L46.5473 14.338L36.2152 71.6179C36.1891 71.7055 36.1354 71.7822 36.0622 71.8368C35.989 71.8914 35.9001 71.9209 35.8087 71.9209C35.7174 71.9209 35.6285 71.8914 35.5553 71.8368C35.482 71.7822 35.4284 71.7055 35.4023 71.6179L30.6899 45.8054L27.2615 53.0862C27.229 53.1583 27.1758 53.2192 27.1087 53.2611C27.0416 53.303 26.9636 53.3242 26.8845 53.3218H10.6501C10.5407 53.3218 10.4359 53.2784 10.3585 53.201C10.2812 53.1237 10.2378 53.0188 10.2378 52.9095C10.2378 52.8001 10.2812 52.6952 10.3585 52.6179C10.4359 52.5406 10.5407 52.4971 10.6501 52.4971H26.6371L30.5013 44.2503C30.5439 44.1735 30.6076 44.1105 30.6848 44.0687C30.7621 44.0269 30.8496 44.0082 30.9372 44.0147C31.0243 44.0279 31.1052 44.0679 31.1685 44.1291C31.2319 44.1903 31.2746 44.2697 31.2907 44.3563L35.8028 69.1675L46.2881 11.0157C46.3078 10.9159 46.3626 10.8266 46.4426 10.7639C46.5226 10.7012 46.6225 10.6693 46.724 10.674C46.8242 10.6768 46.9198 10.7171 46.9918 10.7869C47.0638 10.8567 47.1069 10.9509 47.1128 11.051L53.5924 90.3971L60.4255 41.5878C60.4395 41.4878 60.4887 41.3961 60.5643 41.3291C60.6399 41.2622 60.7368 41.2244 60.8378 41.2226V41.2226C60.9405 41.2248 61.039 41.2642 61.1149 41.3336C61.1907 41.4029 61.2388 41.4974 61.2502 41.5995L63.9834 67.094L67.989 52.7681C68.0105 52.6789 68.0621 52.5998 68.135 52.544C68.2079 52.4882 68.2978 52.4592 68.3896 52.4618H103.851L107.715 44.215C107.754 44.135 107.817 44.0692 107.895 44.0269C107.973 43.9846 108.063 43.968 108.151 43.9793C108.239 43.9908 108.321 44.0302 108.384 44.0917C108.448 44.1533 108.49 44.2337 108.504 44.321L113.04 69.1675L123.525 11.051C123.525 10.9417 123.569 10.8368 123.646 10.7594C123.723 10.6821 123.828 10.6387 123.938 10.6387C124.047 10.6387 124.152 10.6821 124.229 10.7594C124.307 10.8368 124.35 10.9417 124.35 11.051L130.83 90.3971L137.663 41.6231C137.664 41.5715 137.676 41.5207 137.698 41.4739C137.72 41.4271 137.751 41.3852 137.79 41.351C137.828 41.3168 137.874 41.2908 137.923 41.2748C137.972 41.2588 138.024 41.253 138.075 41.2579C138.178 41.2601 138.276 41.2996 138.352 41.3689C138.428 41.4382 138.476 41.5328 138.487 41.6349L141.197 67.1293L145.191 52.8034C145.217 52.7143 145.271 52.6361 145.345 52.5808C145.42 52.5254 145.51 52.496 145.603 52.4971H181.065L184.929 44.2503C184.969 44.1714 185.032 44.1066 185.11 44.0645C185.188 44.0224 185.277 44.0051 185.365 44.0147C185.452 44.0279 185.533 44.0679 185.596 44.1291C185.659 44.1903 185.702 44.2697 185.718 44.3563L190.266 69.1675L200.751 11.0157C200.765 10.9135 200.819 10.821 200.9 10.7574C200.981 10.6937 201.084 10.6639 201.187 10.674C201.287 10.6768 201.383 10.7171 201.454 10.7869C201.526 10.8567 201.57 10.9509 201.576 11.051L208.055 90.3971L214.888 41.5878C214.9 41.4847 214.95 41.3899 215.029 41.3222C215.107 41.2545 215.209 41.2189 215.312 41.2226C215.415 41.2248 215.514 41.2642 215.589 41.3336C215.665 41.4029 215.713 41.4974 215.725 41.5995L218.458 67.094L222.487 52.8034C222.509 52.7142 222.56 52.6351 222.633 52.5793C222.706 52.5236 222.796 52.4945 222.888 52.4971H258.349L262.213 44.2503C262.257 44.1744 262.321 44.1122 262.398 44.0706C262.475 44.029 262.562 44.0096 262.649 44.0147C262.738 44.0256 262.822 44.0645 262.887 44.126C262.953 44.1874 262.997 44.268 263.014 44.3563L267.503 69.1675L277.988 11.0157C278 10.9145 278.051 10.8221 278.13 10.7582C278.21 10.6943 278.311 10.6641 278.412 10.674C278.514 10.6765 278.611 10.7164 278.685 10.786C278.758 10.8555 278.804 10.9499 278.813 11.051L285.292 90.3971L292.125 41.5878C292.137 41.4868 292.186 41.3936 292.262 41.3262C292.338 41.2588 292.436 41.2219 292.538 41.2226V41.2226C292.639 41.2275 292.734 41.2682 292.807 41.3373C292.881 41.4064 292.927 41.4994 292.938 41.5995L295.683 67.094L299.689 52.7563C299.715 52.6703 299.768 52.595 299.84 52.5419C299.912 52.4887 300 52.4606 300.09 52.4618H499.474C499.583 52.4618 499.688 52.5052 499.765 52.5826C499.843 52.6599 499.886 52.7648 499.886 52.8741C499.886 52.9835 499.843 53.0884 499.765 53.1657C499.688 53.243 499.583 53.2865 499.474 53.2865H300.372L295.86 69.4149C295.832 69.5069 295.773 69.5869 295.694 69.6424C295.616 69.6978 295.52 69.7255 295.424 69.7212C295.328 69.7109 295.238 69.6679 295.169 69.5993C295.1 69.5307 295.057 69.4407 295.047 69.3442L292.432 45.0514L285.552 94.2495C285.544 94.3464 285.504 94.4378 285.438 94.5085C285.371 94.5793 285.283 94.6251 285.186 94.6383V94.6383Z" fill="white"/>
<path style="mix-blend-mode:color-dodge" d="M499.886 70.817C509.907 70.817 518.029 62.6941 518.029 52.674C518.029 42.6539 509.907 34.531 499.886 34.531C489.866 34.531 481.743 42.6539 481.743 52.674C481.743 62.6941 489.866 70.817 499.886 70.817Z" fill="url(#paint0_radial_46_726)"/>
<defs>
<radialGradient id="paint0_radial_46_726" cx="0" cy="0" r="1" gradientUnits="userSpaceOnUse" gradientTransform="translate(499.886 52.674) scale(18.143 18.143)">
<stop offset="0.19" stop-color="#F5D5D4"/>
<stop offset="0.36" stop-color="#02A2FA"/>
<stop offset="0.4" stop-color="#0385E2"/>
<stop offset="0.49" stop-color="#064BB1"/>
<stop offset="0.54" stop-color="#07339C"/>
<stop offset="0.56" stop-color="#052778"/>
<stop offset="0.59" stop-color="#041D58"/>
<stop offset="0.62" stop-color="#03143C"/>
<stop offset="0.66" stop-color="#020C26"/>
<stop offset="0.7" stop-color="#010715"/>
<stop offset="0.75" stop-color="#000309"/>
<stop offset="0.82" stop-color="#000102"/>
<stop offset="1"/>
</radialGradient>
</defs>
</svg>
