<svg width="168" height="69" viewBox="0 0 512 108" fill="none" xmlns="http://www.w3.org/2000/svg">
<circle cx="59.5" cy="54.4415" r="42.5" fill="white"/>
<path fill-rule="evenodd" clip-rule="evenodd" d="M74.7427 62.9613C74.7427 65.4479 72.7021 67.4853 70.212 67.4853H63.6897C63.3203 66.2338 62.3563 65.3997 61.2479 64.7259H67.2399C68.2039 64.7259 69.0074 63.94 69.0074 62.9613V44.833C69.0074 43.8703 68.22 43.068 67.2399 43.068H61.6655L61.6816 42.3781C63.2559 41.7847 64.9268 41.2073 66.3564 40.3089H70.1963C72.6863 40.3089 74.7266 42.3463 74.7266 44.833V62.9773L74.7427 62.9613ZM50.8378 27.9397C50.7734 28.2285 50.3558 28.6456 49.7772 28.9825C49.4561 29.175 49.1186 29.3033 48.8615 29.3675C48.9259 29.0787 49.3435 28.6616 49.922 28.3247C50.2431 28.1322 50.5807 28.0039 50.8378 27.9397ZM50.5163 30.298C49.5523 31.052 47.4959 32.159 46.0662 32.3354C44.9096 32.6242 44.8292 34.1643 43.5119 34.3247C44.2027 33.7472 44.4758 32.8809 45.0863 32.3354C44.7167 32.3515 44.3633 32.3836 44.042 32.4156C43.3834 32.4638 42.7086 32.5761 42.0499 32.6884C43.0942 32.0627 45.3594 31.8221 46.2269 31.8542C46.8534 31.7258 47.5281 31.5173 48.1546 31.2445C47.2711 31.405 46.3554 31.3568 45.6485 31.052C45.4718 30.5868 47.6247 28.6456 49.745 27.314C50.7734 26.6563 52.7332 26.6723 53.8738 26.0787C57.5689 24.1536 60.1555 22.6777 63.2881 23.2712C67.3043 24.0092 71.2243 27.2659 71.3208 31.0199C71.4009 34.774 69.666 37.6134 66.4851 39.7633C65.2318 40.6135 63.4487 41.2873 61.6977 41.945L61.7778 39.4423C62.228 38.8971 62.5008 38.2711 62.5812 37.5973C63.1755 37.2766 63.7058 36.9237 64.1556 36.5547C65.987 35.0306 66.9027 34.1322 66.8706 31.2927C66.8384 28.4531 62.8866 26.945 59.6252 27.1055C58.0831 27.1857 56.4765 27.6991 55.0788 28.5814C53.7616 29.4156 52.6048 30.5065 51.3033 31.1001C50.4358 31.5012 49.3757 31.6456 48.3795 31.6296C49.2312 31.3247 49.986 30.8434 50.5002 30.2819L50.5163 30.298ZM49.8255 27.6509C51.5604 26.6884 54.6612 26.56 54.2754 27.7793C53.9865 28.6937 51.7052 30.9397 49.5201 31.3729C50.227 30.7632 50.9017 30.3461 50.9661 29.7686C49.5362 30.282 47.4477 31.5173 46.1787 30.683C46.6928 29.9932 48.0906 28.6135 49.8255 27.6509ZM58.9505 29.7525C60.541 29.7525 61.8743 32.0306 62.1797 35.0467H55.7214C56.0267 32.0306 57.3601 29.7525 58.9505 29.7525ZM61.3923 39.3141L61.0712 48.8275C60.4927 48.5225 59.8984 48.2501 59.336 47.9933C58.2275 47.4799 57.2156 47.0307 56.7336 46.4851L56.4926 39.3141C56.1068 38.881 55.834 38.3354 55.7053 37.7419H62.1636C62.0349 38.3354 61.762 38.881 61.3762 39.3141H61.3923ZM60.9103 53.8489L60.5571 64.3249C60.2356 64.1485 59.8984 63.9717 59.577 63.8114C58.5812 63.314 57.6812 62.8488 57.2796 62.2875L56.9264 51.5387C57.2635 51.699 57.6011 51.8436 57.9382 51.9879C59.3842 52.6295 60.7981 53.159 60.9264 53.8489H60.9103ZM60.4283 68.2394L60.059 79.0682L58.9505 81.587L57.8421 79.0682L57.4083 66.298C57.5045 66.3463 57.6172 66.3945 57.7133 66.4427C58.8862 66.9879 60.1555 67.4853 60.4283 68.2394ZM62.228 35.5921V37.2124H55.6731V35.5921H62.228ZM56.2838 79.5013C55.8819 77.6242 54.3558 74.8652 55.2876 73.1645C55.7053 72.3943 56.4283 71.929 57.1995 71.5601L57.2796 73.8543C56.9746 74.095 56.7014 74.3678 56.4765 74.6884C55.593 76.0521 56.3478 77.897 56.2838 79.5013ZM60.782 68.9771C60.7981 68.865 60.8302 68.7525 60.8302 68.6404C61.0391 65.7846 53.6811 66.298 53.6972 61.373C53.6972 59.2874 55.1271 58.2765 56.7175 57.5228L56.8298 60.972C56.7175 61.1966 56.6532 61.4373 56.6532 61.7097C56.7175 64.2124 63.3525 64.3731 63.4326 68.5761C63.4809 70.6618 62.1797 71.5602 60.6532 72.2339L60.7659 68.9771H60.782ZM61.2801 53.9453C61.3122 52.8541 58.0187 51.6351 56.9424 51.1377C54.7252 50.0947 52.4439 48.6832 52.396 45.7952C52.3638 43.3247 54.0186 41.8168 56.1551 40.6295L56.2999 44.929C56.1229 45.2179 56.0267 45.5067 56.0428 45.8274C56.0907 46.8382 57.2635 47.4799 58.7417 48.1537C61.1835 49.2766 64.4127 50.5439 64.4449 53.961C64.4609 56.4159 62.8866 57.6509 61.1352 58.5172L61.2801 53.961V53.9453ZM57.0708 67.4853H43.1745V40.3089H55.9624C54.7095 41.0145 53.5366 41.9128 52.7976 43.068H48.8293V64.7259H54.8539C55.4804 65.2715 56.2516 65.6885 57.0225 66.0574L57.0708 67.5014V67.4853ZM33.9049 40.3089H39.5599V67.4853H33.9049V40.3089ZM78.3412 40.3089H83.9961V67.4853H78.3412V40.3089Z" fill="black"/>
<path fill-rule="evenodd" clip-rule="evenodd" d="M58.9655 18.3949C78.5489 18.3949 94.5177 34.3415 94.5177 53.8978C94.5177 73.454 78.5489 89.4007 58.9655 89.4007C39.3822 89.4007 23.4134 73.454 23.4134 53.8978C23.4134 34.3415 39.3822 18.3949 58.9655 18.3949ZM58.9655 6.29865C85.2161 6.29865 106.631 27.6838 106.631 53.8978C106.631 80.1119 85.2161 101.497 58.9655 101.497C32.7152 101.497 11.3003 80.1119 11.3003 53.8978C11.3003 27.6838 32.7152 6.29865 58.9655 6.29865ZM58.9655 14.7211C80.5731 14.7211 98.1967 32.3201 98.1967 53.8978C98.1967 75.4754 80.5731 93.0745 58.9655 93.0745C37.358 93.0745 19.7345 75.4754 19.7345 53.8978C19.7345 32.3201 37.358 14.7211 58.9655 14.7211ZM58.9655 20.1276C77.601 20.1276 92.7828 35.3041 92.7828 53.8978C92.7828 72.5074 77.5849 87.6678 58.9655 87.6678C40.33 87.6678 25.1485 72.4914 25.1485 53.8978C25.1485 35.288 40.3461 20.1276 58.9655 20.1276Z" fill="#FA2A21"/>
<path d="M116.938 90.4321H131.932V17.3652H116.938V90.4321Z" fill="white"/>
<path d="M172.879 17.3652H146.747V90.4321H172.879C196.763 90.4321 212.293 76.0909 212.293 54.0032C212.293 31.8111 196.763 17.3652 172.879 17.3652ZM161.741 77.9751V29.7175H172.344C188.088 29.7175 196.977 38.8245 196.977 54.0032C196.977 69.1819 188.088 77.9751 172.344 77.9751H161.741Z" fill="white"/>
<path d="M223.517 90.4321H238.511V17.3652H223.517V90.4321Z" fill="white"/>
<path d="M247.516 28.9113C247.516 34.7976 251.714 38.9378 257.228 38.9378C261.48 38.9378 264.937 36.6283 266.226 32.5727H261.809C260.904 34.4878 259.258 35.4172 257.2 35.4172C253.853 35.4172 251.467 32.8825 251.467 28.9113C251.467 24.912 253.853 22.4054 257.2 22.4054C259.258 22.4054 260.904 23.3348 261.809 25.2218H266.226C264.937 21.1943 261.48 18.8567 257.228 18.8567C251.714 18.8567 247.516 23.025 247.516 28.9113Z" fill="white"/>
<path d="M268.519 30.9109C268.519 35.7834 271.591 39.0222 275.432 39.0222C277.846 39.0222 279.575 37.8394 280.48 36.4874V38.7688H284.348V23.1658H280.48V25.3907C279.575 24.0952 277.901 22.9123 275.459 22.9123C271.591 22.9123 268.519 26.0385 268.519 30.9109ZM280.48 30.9673C280.48 33.9245 278.559 35.558 276.447 35.558C274.389 35.558 272.442 33.8682 272.442 30.9109C272.442 27.9537 274.389 26.3765 276.447 26.3765C278.559 26.3765 280.48 28.01 280.48 30.9673Z" fill="white"/>
<path d="M291.94 25.4471V17.9272H288.099V38.7689H291.94V36.5438C292.873 37.8955 294.574 39.0222 296.96 39.0222C300.856 39.0222 303.901 35.7834 303.901 30.911C303.901 26.0386 300.856 22.9123 296.96 22.9123C294.656 22.9123 292.873 24.0107 291.94 25.4471ZM299.978 30.911C299.978 33.8682 298.03 35.5581 295.945 35.5581C293.888 35.5581 291.94 33.9246 291.94 30.9673C291.94 28.01 293.888 26.3765 295.945 26.3765C298.03 26.3765 299.978 27.9537 299.978 30.911Z" fill="white"/>
<path d="M305.704 30.9109C305.704 35.7834 308.777 39.0222 312.618 39.0222C315.032 39.0222 316.76 37.8394 317.666 36.4874V38.7688H321.534V23.1658H317.666V25.3907C316.76 24.0952 315.087 22.9123 312.645 22.9123C308.777 22.9123 305.704 26.0385 305.704 30.9109ZM317.666 30.9673C317.666 33.9245 315.746 35.558 313.633 35.558C311.576 35.558 309.628 33.8682 309.628 30.9109C309.628 27.9537 311.576 26.3765 313.633 26.3765C315.746 26.3765 317.666 28.01 317.666 30.9673Z" fill="white"/>
<path d="M335.93 38.7688H339.77V29.6154C339.77 25.3063 337.246 22.9405 333.707 22.9405C331.76 22.9405 330.113 23.7854 329.126 25.1091V23.1658H325.285V38.7688H329.126V30.1505C329.126 27.6439 330.47 26.292 332.555 26.292C334.585 26.292 335.93 27.6439 335.93 30.1505V38.7688Z" fill="white"/>
<path d="M342.435 30.9109C342.435 35.7834 345.507 39.0222 349.376 39.0222C351.763 39.0222 353.491 37.811 354.396 36.4593V38.8813C354.396 41.7824 352.75 43.0216 350.638 43.0216C348.717 43.0216 347.291 42.0922 346.907 40.684H343.093C343.477 44.2608 346.468 46.4577 350.747 46.4577C355.741 46.4577 358.264 43.106 358.264 38.8813V23.1658H354.396V25.3907C353.491 24.0389 351.763 22.9123 349.376 22.9123C345.507 22.9123 342.435 26.0385 342.435 30.9109ZM354.396 30.9673C354.396 33.9245 352.476 35.558 350.363 35.558C348.306 35.558 346.358 33.8682 346.358 30.9109C346.358 27.9537 348.306 26.3765 350.363 26.3765C352.476 26.3765 354.396 28.01 354.396 30.9673Z" fill="white"/>
<path d="M272.23 57.9415V63.062H263.791V89.5708H257.439V63.062H249V57.9415H272.23Z" fill="#FA2A21"/>
<path d="M275.231 76.9281C275.231 74.3905 275.731 72.1399 276.729 70.1763C277.757 68.2127 279.133 66.7023 280.858 65.6449C282.612 64.5876 284.563 64.0589 286.71 64.0589C288.586 64.0589 290.219 64.4366 291.611 65.1918C293.032 65.947 294.167 66.8986 295.013 68.0466V64.4668H301.411V89.5708H295.013V85.9003C294.197 87.0785 293.063 88.0603 291.611 88.8457C290.189 89.601 288.54 89.9786 286.665 89.9786C284.548 89.9786 282.612 89.4348 280.858 88.3473C279.133 87.2598 277.757 85.7342 276.729 83.7706C275.731 81.7767 275.231 79.4959 275.231 76.9281ZM295.013 77.0188C295.013 75.4781 294.711 74.164 294.106 73.0764C293.501 71.9587 292.684 71.1128 291.656 70.5389C290.628 69.9347 289.524 69.6326 288.344 69.6326C287.164 69.6326 286.075 69.9196 285.077 70.4935C284.079 71.0675 283.262 71.9134 282.627 73.0311C282.022 74.1187 281.72 75.4177 281.72 76.9281C281.72 78.4386 282.022 79.7678 282.627 80.9158C283.262 82.0335 284.079 82.8945 285.077 83.4987C286.106 84.1029 287.194 84.405 288.344 84.405C289.524 84.405 290.628 84.118 291.656 83.544C292.684 82.9398 293.501 82.0939 294.106 81.0064C294.711 79.8887 295.013 78.5594 295.013 77.0188Z" fill="#FA2A21"/>
<path d="M321.544 64.1042C324.538 64.1042 326.958 65.0558 328.803 66.959C330.648 68.832 331.571 71.4602 331.571 74.8437V89.5708H325.219V75.7047C325.219 73.7108 324.72 72.1853 323.722 71.1279C322.723 70.0404 321.362 69.4966 319.638 69.4966C317.884 69.4966 316.492 70.0404 315.464 71.1279C314.466 72.1853 313.967 73.7108 313.967 75.7047V89.5708H307.615V64.4668H313.967V67.5934C314.814 66.5059 315.887 65.66 317.188 65.0558C318.519 64.4214 319.971 64.1042 321.544 64.1042Z" fill="#FA2A21"/>
<path d="M347.457 64.0589C349.332 64.0589 350.981 64.4366 352.402 65.1918C353.824 65.9168 354.943 66.8684 355.76 68.0466V64.4668H362.157V89.752C362.157 92.0782 361.689 94.1475 360.751 95.9601C359.813 97.8028 358.407 99.2529 356.531 100.31C354.656 101.398 352.387 101.942 349.726 101.942C346.156 101.942 343.222 101.111 340.923 99.4492C338.655 97.7877 337.369 95.522 337.067 92.6521H343.374C343.706 93.8001 344.417 94.7064 345.506 95.371C346.625 96.0658 347.971 96.4132 349.544 96.4132C351.389 96.4132 352.886 95.8543 354.036 94.7366C355.185 93.649 355.76 91.9875 355.76 89.752V85.855C354.943 87.0332 353.809 88.015 352.357 88.8004C350.935 89.5859 349.302 89.9786 347.457 89.9786C345.34 89.9786 343.404 89.4348 341.649 88.3473C339.895 87.2598 338.504 85.7342 337.475 83.7706C336.477 81.7767 335.978 79.4959 335.978 76.9281C335.978 74.3905 336.477 72.1399 337.475 70.1763C338.504 68.2127 339.88 66.7023 341.604 65.6449C343.358 64.5876 345.309 64.0589 347.457 64.0589ZM355.76 77.0188C355.76 75.4781 355.457 74.164 354.853 73.0764C354.248 71.9587 353.431 71.1128 352.402 70.5389C351.374 69.9347 350.27 69.6326 349.09 69.6326C347.911 69.6326 346.822 69.9196 345.824 70.4935C344.825 71.0675 344.009 71.9134 343.374 73.0311C342.769 74.1187 342.466 75.4177 342.466 76.9281C342.466 78.4386 342.769 79.7678 343.374 80.9158C344.009 82.0335 344.825 82.8945 345.824 83.4987C346.852 84.1029 347.941 84.405 349.09 84.405C350.27 84.405 351.374 84.118 352.402 83.544C353.431 82.9398 354.248 82.0939 354.853 81.0064C355.457 79.8887 355.76 78.5594 355.76 77.0188Z" fill="#FA2A21"/>
<path d="M391.728 76.475C391.728 77.3813 391.667 78.1969 391.546 78.922H373.171C373.322 80.7345 373.957 82.1544 375.076 83.1815C376.195 84.2086 377.572 84.7222 379.205 84.7222C381.564 84.7222 383.243 83.7101 384.241 81.6861H391.092C390.366 84.1029 388.975 86.0967 386.918 87.6676C384.861 89.2083 382.336 89.9786 379.341 89.9786C376.921 89.9786 374.743 89.4499 372.808 88.3926C370.902 87.3051 369.405 85.7795 368.316 83.8159C367.257 81.8523 366.728 79.5866 366.728 77.0188C366.728 74.4208 367.257 72.1399 368.316 70.1763C369.374 68.2127 370.857 66.7023 372.762 65.6449C374.668 64.5876 376.861 64.0589 379.341 64.0589C381.731 64.0589 383.863 64.5725 385.739 65.5996C387.644 66.6267 389.111 68.0919 390.14 69.9951C391.198 71.8681 391.728 74.028 391.728 76.475ZM385.149 74.6624C385.118 73.0311 384.529 71.7321 383.379 70.7654C382.23 69.7685 380.823 69.2701 379.16 69.2701C377.587 69.2701 376.256 69.7534 375.167 70.7201C374.108 71.6566 373.458 72.9707 373.216 74.6624H385.149Z" fill="#FA2A21"/>
<path d="M402.716 68.3638C403.533 67.0346 404.591 65.9923 405.892 65.2371C407.223 64.4819 408.735 64.1042 410.429 64.1042V70.7654H408.75C406.754 70.7654 405.242 71.2337 404.213 72.1702C403.215 73.1067 402.716 74.738 402.716 77.0641V89.5708H396.364V64.4668H402.716V68.3638Z" fill="#FA2A21"/>
<path d="M413.074 76.9281C413.074 74.3905 413.573 72.1399 414.571 70.1763C415.6 68.2127 416.976 66.7023 418.7 65.6449C420.455 64.5876 422.406 64.0589 424.553 64.0589C426.429 64.0589 428.062 64.4366 429.453 65.1918C430.875 65.947 432.009 66.8986 432.856 68.0466V64.4668H439.254V89.5708H432.856V85.9003C432.039 87.0785 430.905 88.0603 429.453 88.8457C428.032 89.601 426.383 89.9786 424.508 89.9786C422.39 89.9786 420.455 89.4348 418.7 88.3473C416.976 87.2598 415.6 85.7342 414.571 83.7706C413.573 81.7767 413.074 79.4959 413.074 76.9281ZM432.856 77.0188C432.856 75.4781 432.554 74.164 431.949 73.0764C431.344 71.9587 430.527 71.1128 429.499 70.5389C428.47 69.9347 427.366 69.6326 426.187 69.6326C425.007 69.6326 423.918 69.9196 422.92 70.4935C421.922 71.0675 421.105 71.9134 420.47 73.0311C419.865 74.1187 419.562 75.4177 419.562 76.9281C419.562 78.4386 419.865 79.7678 420.47 80.9158C421.105 82.0335 421.922 82.8945 422.92 83.4987C423.948 84.1029 425.037 84.405 426.187 84.405C427.366 84.405 428.47 84.118 429.499 83.544C430.527 82.9398 431.344 82.0939 431.949 81.0064C432.554 79.8887 432.856 78.5594 432.856 77.0188Z" fill="#FA2A21"/>
<path d="M459.386 64.1042C462.381 64.1042 464.801 65.0558 466.646 66.959C468.491 68.832 469.414 71.4602 469.414 74.8437V89.5708H463.062V75.7047C463.062 73.7108 462.562 72.1853 461.564 71.1279C460.566 70.0404 459.205 69.4966 457.481 69.4966C455.726 69.4966 454.335 70.0404 453.307 71.1279C452.308 72.1853 451.809 73.7108 451.809 75.7047V89.5708H445.457V64.4668H451.809V67.5934C452.656 66.5059 453.73 65.66 455.031 65.0558C456.362 64.4214 457.814 64.1042 459.386 64.1042Z" fill="#FA2A21"/>
<path d="M485.3 64.0589C487.175 64.0589 488.823 64.4366 490.245 65.1918C491.667 65.9168 492.786 66.8684 493.603 68.0466V64.4668H500V89.752C500 92.0782 499.531 94.1475 498.593 95.9601C497.656 97.8028 496.249 99.2529 494.374 100.31C492.499 101.398 490.23 101.942 487.568 101.942C483.999 101.942 481.065 101.111 478.766 99.4492C476.498 97.7877 475.212 95.522 474.91 92.6521H481.216C481.549 93.8001 482.26 94.7064 483.349 95.371C484.468 96.0658 485.814 96.4132 487.387 96.4132C489.232 96.4132 490.729 95.8543 491.878 94.7366C493.028 93.649 493.603 91.9875 493.603 89.752V85.855C492.786 87.0332 491.652 88.015 490.2 88.8004C488.778 89.5859 487.145 89.9786 485.3 89.9786C483.182 89.9786 481.246 89.4348 479.492 88.3473C477.738 87.2598 476.346 85.7342 475.318 83.7706C474.32 81.7767 473.821 79.4959 473.821 76.9281C473.821 74.3905 474.32 72.1399 475.318 70.1763C476.346 68.2127 477.723 66.7023 479.447 65.6449C481.201 64.5876 483.152 64.0589 485.3 64.0589ZM493.603 77.0188C493.603 75.4781 493.3 74.164 492.695 73.0764C492.09 71.9587 491.274 71.1128 490.245 70.5389C489.217 69.9347 488.113 69.6326 486.933 69.6326C485.753 69.6326 484.664 69.9196 483.666 70.4935C482.668 71.0675 481.851 71.9134 481.216 73.0311C480.611 74.1187 480.309 75.4177 480.309 76.9281C480.309 78.4386 480.611 79.7678 481.216 80.9158C481.851 82.0335 482.668 82.8945 483.666 83.4987C484.695 84.1029 485.784 84.405 486.933 84.405C488.113 84.405 489.217 84.118 490.245 83.544C491.274 82.9398 492.09 82.0939 492.695 81.0064C493.3 79.8887 493.603 78.5594 493.603 77.0188Z" fill="#FA2A21"/>
</svg>
