<svg width="981" height="207" viewBox="0 0 981 207" fill="none" xmlns="http://www.w3.org/2000/svg">
<ellipse cx="114.003" cy="104.346" rx="81.4307" ry="81.4583" fill="white"/>
<path fill-rule="evenodd" clip-rule="evenodd" d="M143.208 120.676C143.208 125.442 139.298 129.347 134.527 129.347H122.03C121.323 126.948 119.476 125.349 117.352 124.058H128.833C130.68 124.058 132.219 122.552 132.219 120.676V85.9298C132.219 84.0847 130.711 82.5469 128.833 82.5469H118.152L118.183 81.2247C121.199 80.0873 124.401 78.9806 127.14 77.2587H134.497C139.268 77.2587 143.177 81.1638 143.177 85.9298V120.707L143.208 120.676ZM97.4059 53.5511C97.2825 54.1045 96.4824 54.904 95.3739 55.5497C94.7587 55.9188 94.1119 56.1647 93.6193 56.2877C93.7426 55.7343 94.5428 54.9348 95.6513 54.289C96.2665 53.9201 96.9133 53.6741 97.4059 53.5511ZM96.79 58.0711C94.9429 59.5163 91.0029 61.6381 88.2636 61.9763C86.0473 62.5297 85.8934 65.4816 83.3694 65.7891C84.693 64.6822 85.2162 63.0217 86.3859 61.9763C85.6779 62.007 85.0008 62.0685 84.3852 62.13C83.1231 62.2222 81.8303 62.4375 80.5683 62.6527C82.569 61.4535 86.9092 60.9923 88.5714 61.0538C89.7718 60.8078 91.0646 60.4081 92.2649 59.8854C90.5721 60.1928 88.8176 60.1006 87.4632 59.5163C87.1247 58.6247 91.2496 54.904 95.3122 52.3519C97.2825 51.0912 101.038 51.1219 103.223 49.9842C110.303 46.2944 115.259 43.4655 121.261 44.6032C128.956 46.0176 136.467 52.2597 136.652 59.4549C136.805 66.6501 133.481 72.0923 127.386 76.213C124.985 77.8425 121.569 79.1339 118.214 80.3945L118.367 75.5977C119.23 74.5527 119.752 73.353 119.907 72.0615C121.045 71.4468 122.061 70.7704 122.923 70.0632C126.432 67.142 128.187 65.4201 128.125 59.9776C128.063 54.5351 120.492 51.6447 114.243 51.9522C111.288 52.1059 108.21 53.0899 105.532 54.781C103.008 56.38 100.792 58.4709 98.2978 59.6086C96.6358 60.3773 94.6045 60.654 92.6958 60.6233C94.3277 60.0391 95.7739 59.1166 96.7591 58.0404L96.79 58.0711ZM95.4663 52.9976C98.7904 51.1527 104.732 50.9067 103.992 53.2436C103.439 54.9963 99.0679 59.3011 94.8813 60.1313C96.2357 58.9629 97.5285 58.1634 97.6518 57.0565C94.9121 58.0404 90.9104 60.4081 88.479 58.8091C89.464 57.4869 92.1423 54.8426 95.4663 52.9976ZM112.95 57.0257C115.997 57.0257 118.552 61.392 119.137 67.1728H106.763C107.348 61.392 109.903 57.0257 112.95 57.0257ZM117.629 75.3521L117.013 93.586C115.905 93.0015 114.766 92.4793 113.689 91.9873C111.565 91.0031 109.626 90.1422 108.702 89.0964L108.241 75.3521C107.501 74.5219 106.979 73.4762 106.732 72.3387H119.106C118.86 73.4762 118.337 74.5219 117.598 75.3521H117.629ZM116.705 103.21L116.028 123.289C115.412 122.951 114.766 122.613 114.15 122.305C112.242 121.352 110.518 120.46 109.749 119.384L109.072 98.7825C109.718 99.0897 110.364 99.3669 111.011 99.6434C113.781 100.873 116.49 101.888 116.736 103.21H116.705ZM115.782 130.792L115.074 151.547L112.95 156.375L110.826 151.547L109.995 127.071C110.18 127.164 110.395 127.256 110.58 127.348C112.827 128.393 115.259 129.347 115.782 130.792ZM119.23 68.2183V71.3239H106.67V68.2183H119.23ZM107.841 152.378C107.071 148.78 104.147 143.492 105.932 140.232C106.732 138.756 108.117 137.864 109.595 137.157L109.749 141.554C109.164 142.015 108.641 142.538 108.21 143.153C106.517 145.766 107.963 149.303 107.841 152.378ZM116.459 132.206C116.49 131.991 116.552 131.776 116.552 131.561C116.952 126.087 102.854 127.071 102.885 117.632C102.885 113.634 105.624 111.697 108.672 110.252L108.887 116.863C108.672 117.294 108.548 117.755 108.548 118.277C108.672 123.074 121.384 123.382 121.538 131.438C121.63 135.435 119.137 137.157 116.212 138.448L116.428 132.206H116.459ZM117.413 103.395C117.475 101.304 111.165 98.9672 109.103 98.0139C104.854 96.0148 100.483 93.3095 100.392 87.7742C100.33 83.039 103.501 80.1489 107.594 77.8733L107.871 86.1139C107.532 86.6676 107.348 87.2212 107.379 87.8358C107.471 89.7733 109.718 91.0031 112.55 92.2945C117.228 94.4469 123.416 96.8758 123.477 103.425C123.508 108.13 120.492 110.498 117.136 112.158L117.413 103.425V103.395ZM109.348 129.347H82.723V77.2587H107.225C104.824 78.611 102.577 80.3329 101.161 82.5469H93.5577V124.058H105.101C106.301 125.104 107.779 125.903 109.256 126.61L109.348 129.378V129.347ZM64.9623 77.2587H75.7972V129.347H64.9623V77.2587ZM150.103 77.2587H160.938V129.347H150.103V77.2587Z" fill="black"/>
<path fill-rule="evenodd" clip-rule="evenodd" d="M112.979 35.257C150.501 35.257 181.097 65.8213 181.097 103.304C181.097 140.787 150.501 171.351 112.979 171.351C75.4568 171.351 44.8604 140.787 44.8604 103.304C44.8604 65.8213 75.4568 35.257 112.979 35.257ZM112.979 12.0724C163.275 12.0724 204.306 53.0605 204.306 103.304C204.306 153.548 163.275 194.536 112.979 194.536C62.6827 194.536 21.6515 153.548 21.6515 103.304C21.6515 53.0605 62.6827 12.0724 112.979 12.0724ZM112.979 28.2155C154.379 28.2155 188.146 61.9469 188.146 103.304C188.146 144.661 154.379 178.393 112.979 178.393C71.5784 178.393 37.8116 144.661 37.8116 103.304C37.8116 61.9469 71.5784 28.2155 112.979 28.2155ZM112.979 38.5778C148.685 38.5778 177.773 67.6662 177.773 103.304C177.773 138.973 148.654 168.03 112.979 168.03C77.2729 168.03 48.1848 138.942 48.1848 103.304C48.1848 67.6354 77.3037 38.5778 112.979 38.5778Z" fill="#FA2A21"/>
<path d="M224.056 173.328H252.785V33.2834H224.056V173.328Z" fill="black"/>
<path d="M331.24 33.2834H281.169V173.328H331.24C377.001 173.328 406.756 145.841 406.756 103.506C406.756 60.9713 377.001 33.2834 331.24 33.2834ZM309.898 149.452V56.9586H330.214C360.379 56.9586 377.411 74.4137 377.411 103.506C377.411 132.599 360.379 149.452 330.214 149.452H309.898Z" fill="black"/>
<path d="M428.261 173.328H456.99V33.2834H428.261V173.328Z" fill="black"/>
<path d="M474.244 55.4133C474.244 66.6955 482.287 74.6307 492.852 74.6307C501 74.6307 507.623 70.2042 510.093 62.4309H501.63C499.895 66.1017 496.742 67.883 492.799 67.883C486.387 67.883 481.814 63.0247 481.814 55.4133C481.814 47.748 486.387 42.9436 492.799 42.9436C496.742 42.9436 499.895 44.725 501.63 48.3418H510.093C507.623 40.6224 501 36.142 492.852 36.142C482.287 36.142 474.244 44.1313 474.244 55.4133Z" fill="black"/>
<path d="M514.486 59.246C514.486 68.5848 520.373 74.7925 527.732 74.7925C532.357 74.7925 535.669 72.5256 537.404 69.9343V74.3069H544.816V44.4011H537.404V48.6655C535.669 46.1824 532.463 43.9152 527.784 43.9152C520.373 43.9152 514.486 49.9072 514.486 59.246ZM537.404 59.3539C537.404 65.022 533.724 68.1529 529.677 68.1529C525.734 68.1529 522.002 64.914 522.002 59.246C522.002 53.5779 525.734 50.5549 529.677 50.5549C533.724 50.5549 537.404 53.6858 537.404 59.3539Z" fill="black"/>
<path d="M559.362 48.7736V34.3606H552.002V74.307H559.362V70.0423C561.149 72.6331 564.408 74.7926 568.981 74.7926C576.445 74.7926 582.28 68.5848 582.28 59.2461C582.28 49.9073 576.445 43.9153 568.981 43.9153C564.565 43.9153 561.149 46.0205 559.362 48.7736ZM574.763 59.2461C574.763 64.9141 571.031 68.153 567.036 68.153C563.094 68.153 559.362 65.0221 559.362 59.354C559.362 53.6859 563.094 50.555 567.036 50.555C571.031 50.555 574.763 53.578 574.763 59.2461Z" fill="black"/>
<path d="M585.734 59.246C585.734 68.5848 591.622 74.7925 598.981 74.7925C603.607 74.7925 606.918 72.5256 608.652 69.9343V74.3069H616.064V44.4011H608.652V48.6655C606.918 46.1824 603.711 43.9152 599.034 43.9152C591.622 43.9152 585.734 49.9072 585.734 59.246ZM608.652 59.3539C608.652 65.022 604.973 68.1529 600.926 68.1529C596.984 68.1529 593.252 64.914 593.252 59.246C593.252 53.5779 596.984 50.5549 600.926 50.5549C604.973 50.5549 608.652 53.6858 608.652 59.3539Z" fill="black"/>
<path d="M643.646 74.3069H651.005V56.7629C651.005 48.5037 646.169 43.9693 639.389 43.9693C635.657 43.9693 632.502 45.5887 630.61 48.1258V44.4011H623.251V74.3069H630.61V57.7885C630.61 52.9842 633.186 50.393 637.181 50.393C641.07 50.393 643.646 52.9842 643.646 57.7885V74.3069Z" fill="black"/>
<path d="M656.111 59.246C656.111 68.5848 661.998 74.7925 669.409 74.7925C673.982 74.7925 677.294 72.4711 679.028 69.8803V74.5225C679.028 80.0828 675.875 82.458 671.827 82.458C668.147 82.458 665.414 80.6766 664.678 77.9778H657.372C658.108 84.8331 663.837 89.044 672.037 89.044C681.604 89.044 686.44 82.6199 686.44 74.5225V44.4011H679.028V48.6655C677.294 46.0745 673.982 43.9152 669.409 43.9152C661.998 43.9152 656.111 49.9072 656.111 59.246ZM679.028 59.3539C679.028 65.022 675.349 68.1529 671.302 68.1529C667.359 68.1529 663.627 64.914 663.627 59.246C663.627 53.5779 667.359 50.5549 671.302 50.5549C675.349 50.5549 679.028 53.6858 679.028 59.3539Z" fill="black"/>
<path d="M521.597 111.055V120.869H505.428V171.677H493.257V120.869H477.088V111.055H521.597Z" fill="#FA2A21"/>
<path d="M527.348 147.446C527.348 142.582 528.304 138.268 530.217 134.505C532.187 130.741 534.824 127.846 538.127 125.819C541.489 123.793 545.227 122.78 549.342 122.78C552.935 122.78 556.065 123.503 558.731 124.951C561.454 126.398 563.628 128.222 565.25 130.423V123.561H577.508V171.677H565.25V164.642C563.686 166.9 561.512 168.782 558.731 170.288C556.007 171.735 552.848 172.459 549.255 172.459C545.198 172.459 541.489 171.417 538.127 169.332C534.824 167.248 532.187 164.324 530.217 160.56C528.304 156.739 527.348 152.367 527.348 147.446ZM565.25 147.619C565.25 144.666 564.671 142.148 563.512 140.063C562.353 137.921 560.788 136.3 558.817 135.199C556.847 134.041 554.732 133.462 552.471 133.462C550.211 133.462 548.125 134.012 546.212 135.113C544.3 136.213 542.735 137.834 541.518 139.976C540.359 142.061 539.779 144.55 539.779 147.446C539.779 150.341 540.359 152.888 541.518 155.089C542.735 157.231 544.3 158.881 546.212 160.039C548.183 161.197 550.269 161.776 552.471 161.776C554.732 161.776 556.847 161.226 558.817 160.126C560.788 158.968 562.353 157.347 563.512 155.262C564.671 153.12 565.25 150.572 565.25 147.619Z" fill="#FA2A21"/>
<path d="M616.083 122.866C621.82 122.866 626.457 124.69 629.992 128.338C633.527 131.928 635.295 136.965 635.295 143.45V171.677H623.124V145.101C623.124 141.279 622.168 138.355 620.256 136.329C618.343 134.244 615.735 133.202 612.432 133.202C609.07 133.202 606.404 134.244 604.434 136.329C602.521 138.355 601.565 141.279 601.565 145.101V171.677H589.395V123.561H601.565V129.554C603.188 127.47 605.245 125.848 607.737 124.69C610.287 123.474 613.069 122.866 616.083 122.866Z" fill="#FA2A21"/>
<path d="M665.733 122.78C669.326 122.78 672.485 123.503 675.209 124.951C677.933 126.341 680.077 128.164 681.642 130.423V123.561H693.899V172.025C693.899 176.483 693.001 180.449 691.204 183.923C689.408 187.455 686.713 190.235 683.119 192.261C679.526 194.346 675.18 195.388 670.08 195.388C663.241 195.388 657.619 193.796 653.215 190.611C648.868 187.426 646.405 183.084 645.825 177.583H657.909C658.547 179.783 659.908 181.521 661.995 182.794C664.139 184.126 666.718 184.792 669.732 184.792C673.267 184.792 676.136 183.721 678.338 181.578C680.54 179.494 681.642 176.309 681.642 172.025V164.555C680.077 166.814 677.904 168.695 675.122 170.201C672.398 171.706 669.268 172.459 665.733 172.459C661.676 172.459 657.967 171.417 654.606 169.332C651.244 167.248 648.578 164.324 646.608 160.56C644.695 156.739 643.739 152.367 643.739 147.446C643.739 142.582 644.695 138.268 646.608 134.505C648.578 130.741 651.215 127.846 654.519 125.819C657.88 123.793 661.618 122.78 665.733 122.78ZM681.642 147.619C681.642 144.666 681.062 142.148 679.903 140.063C678.744 137.921 677.179 136.3 675.209 135.199C673.238 134.041 671.123 133.462 668.863 133.462C666.602 133.462 664.516 134.012 662.603 135.113C660.691 136.213 659.126 137.834 657.909 139.976C656.75 142.061 656.17 144.55 656.17 147.446C656.17 150.341 656.75 152.888 657.909 155.089C659.126 157.231 660.691 158.881 662.603 160.039C664.574 161.197 666.66 161.776 668.863 161.776C671.123 161.776 673.238 161.226 675.209 160.126C677.179 158.968 678.744 157.347 679.903 155.262C681.062 153.12 681.642 150.572 681.642 147.619Z" fill="#FA2A21"/>
<path d="M750.556 146.577C750.556 148.314 750.44 149.877 750.208 151.267H715.001C715.29 154.741 716.508 157.463 718.652 159.431C720.796 161.4 723.433 162.384 726.563 162.384C731.083 162.384 734.3 160.444 736.212 156.565H749.339C747.948 161.197 745.282 165.019 741.341 168.03C737.4 170.982 732.561 172.459 726.823 172.459C722.187 172.459 718.014 171.446 714.305 169.419C710.654 167.335 707.785 164.411 705.699 160.647C703.67 156.883 702.656 152.541 702.656 147.619C702.656 142.64 703.67 138.268 705.699 134.505C707.727 130.741 710.567 127.846 714.218 125.819C717.869 123.793 722.071 122.78 726.823 122.78C731.402 122.78 735.488 123.764 739.081 125.733C742.732 127.701 745.543 130.509 747.513 134.157C749.542 137.747 750.556 141.887 750.556 146.577ZM737.951 143.103C737.893 139.976 736.763 137.487 734.561 135.634C732.358 133.723 729.663 132.768 726.476 132.768C723.462 132.768 720.912 133.694 718.826 135.547C716.797 137.342 715.551 139.86 715.088 143.103H737.951Z" fill="#FA2A21"/>
<path d="M771.61 131.031C773.175 128.483 775.203 126.485 777.695 125.038C780.245 123.59 783.143 122.866 786.389 122.866V135.634H783.172C779.347 135.634 776.449 136.531 774.479 138.326C772.566 140.121 771.61 143.248 771.61 147.706V171.677H759.44V123.561H771.61V131.031Z" fill="#FA2A21"/>
<path d="M791.457 147.446C791.457 142.582 792.413 138.268 794.325 134.505C796.296 130.741 798.933 127.846 802.236 125.819C805.598 123.793 809.336 122.78 813.45 122.78C817.044 122.78 820.173 123.503 822.839 124.951C825.563 126.398 827.736 128.222 829.359 130.423V123.561H841.617V171.677H829.359V164.642C827.794 166.9 825.621 168.782 822.839 170.288C820.115 171.735 816.957 172.459 813.364 172.459C809.307 172.459 805.598 171.417 802.236 169.332C798.933 167.248 796.296 164.324 794.325 160.56C792.413 156.739 791.457 152.367 791.457 147.446ZM829.359 147.619C829.359 144.666 828.78 142.148 827.62 140.063C826.461 137.921 824.897 136.3 822.926 135.199C820.956 134.041 818.84 133.462 816.58 133.462C814.32 133.462 812.233 134.012 810.321 135.113C808.408 136.213 806.844 137.834 805.627 139.976C804.467 142.061 803.888 144.55 803.888 147.446C803.888 150.341 804.467 152.888 805.627 155.089C806.844 157.231 808.408 158.881 810.321 160.039C812.291 161.197 814.378 161.776 816.58 161.776C818.84 161.776 820.956 161.226 822.926 160.126C824.897 158.968 826.461 157.347 827.62 155.262C828.78 153.12 829.359 150.572 829.359 147.619Z" fill="#FA2A21"/>
<path d="M880.192 122.866C885.929 122.866 890.566 124.69 894.101 128.338C897.636 131.928 899.404 136.965 899.404 143.45V171.677H887.233V145.101C887.233 141.279 886.277 138.355 884.364 136.329C882.452 134.244 879.844 133.202 876.54 133.202C873.179 133.202 870.513 134.244 868.543 136.329C866.63 138.355 865.674 141.279 865.674 145.101V171.677H853.503V123.561H865.674V129.554C867.297 127.47 869.354 125.848 871.846 124.69C874.396 123.474 877.178 122.866 880.192 122.866Z" fill="#FA2A21"/>
<path d="M929.842 122.78C933.435 122.78 936.593 123.503 939.317 124.951C942.041 126.341 944.186 128.164 945.75 130.423V123.561H958.008V172.025C958.008 176.483 957.109 180.449 955.313 183.923C953.516 187.455 950.821 190.235 947.228 192.261C943.635 194.346 939.288 195.388 934.188 195.388C927.35 195.388 921.728 193.796 917.323 190.611C912.977 187.426 910.514 183.084 909.934 177.583H922.018C922.655 179.783 924.017 181.521 926.104 182.794C928.248 184.126 930.827 184.792 933.841 184.792C937.376 184.792 940.245 183.721 942.447 181.578C944.649 179.494 945.75 176.309 945.75 172.025V164.555C944.186 166.814 942.012 168.695 939.23 170.201C936.506 171.706 933.377 172.459 929.842 172.459C925.785 172.459 922.076 171.417 918.714 169.332C915.353 167.248 912.687 164.324 910.717 160.56C908.804 156.739 907.848 152.367 907.848 147.446C907.848 142.582 908.804 138.268 910.717 134.505C912.687 130.741 915.324 127.846 918.627 125.819C921.989 123.793 925.727 122.78 929.842 122.78ZM945.75 147.619C945.75 144.666 945.171 142.148 944.012 140.063C942.853 137.921 941.288 136.3 939.317 135.199C937.347 134.041 935.231 133.462 932.971 133.462C930.711 133.462 928.625 134.012 926.712 135.113C924.8 136.213 923.235 137.834 922.018 139.976C920.859 142.061 920.279 144.55 920.279 147.446C920.279 150.341 920.859 152.888 922.018 155.089C923.235 157.231 924.8 158.881 926.712 160.039C928.683 161.197 930.769 161.776 932.971 161.776C935.231 161.776 937.347 161.226 939.317 160.126C941.288 158.968 942.853 157.347 944.012 155.262C945.171 153.12 945.75 150.572 945.75 147.619Z" fill="#FA2A21"/>
</svg>
